#VRML V2.0 utf8
# 3D model generated by kicad-lcsc-manager
# Based on easyeda2kicad.py v1.0.1

Shape{
    appearance Appearance {
        material  Material {
            diffuseColor 1.0 1.0 1.0
            specularColor 0.30196078431372547 0.30196078431372547 0.30196078431372547
            ambientIntensity 1.0
            transparency 0.0
            shininess 0.5
        }
    }
    geometry IndexedFaceSet {
        ccw TRUE
        solid FALSE
        coord DEF co Coordinate {
            point [
                -2.4607 -1.1365 0.0394, -2.4607 -0.1547 0.0394, -0.0817 -0.1547 0.0394, -0.6146 -1.1389 0.0394, -0.6674 -1.1389 0.0394, -0.0817 -1.1365 0.0394, 0.168 -1.1389 0.0394, 0.3027 -1.1365 0.0394, 0.2903 -1.1374 0.0394, 0.2448 -1.1497 0.0394, 0.2448 -1.2026 0.0394, 0.168 -1.5326 0.0394, -0.0336 -1.1822 0.0394, -0.0433 -1.4894 0.0394, 2.4606 -1.1365 0.0394, 2.4606 -2.9106 0.0394, 0.773 -1.5326 0.0394, 0.337 -1.1774 0.0394, 0.2519 -1.4729 0.0394, 0.2892 -1.1836 0.0394, 0.2448 -1.469 0.0394, 0.5169 -1.2425 0.0394, 0.4934 -1.2052 0.0394, 0.7201 -1.1389 0.0394, 0.459 -1.1722 0.0394, 0.4222 -1.1507 0.0394, -0.0336 -1.1389 0.0394, 0.379 -1.1377 0.0394, 0.3653 -1.1365 0.0394, 0.773 -1.1389 0.0394, 0.1152 -1.355 0.0394, 0.1152 -1.4894 0.0394, -0.024 -1.355 0.0394, -0.024 -1.3118 0.0394, 0.1152 -1.3118 0.0394, 0.1152 -1.1822 0.0394, -0.0817 -2.9106 0.0394, -0.0433 -1.5326 0.0394, 0.3758 -1.1817 0.0394, 0.4051 -1.1923 0.0394, 0.433 -1.211 0.0394, 0.4567 -1.2374 0.0394, 0.4727 -1.2678 0.0394, 0.4831 -1.3104 0.0394, 0.4849 -1.34 0.0394, 0.4809 -1.3826 0.0394, 0.4702 -1.4164 0.0394, 0.3459 -1.4942 0.0394, 0.4355 -1.4631 0.0394, 0.3824 -1.4902 0.0394, 0.4114 -1.4795 0.0394, 0.4538 -1.4438 0.0394, 0.2936 -1.4884 0.0394, 0.7201 -1.4894 0.0394, 0.5377 -1.3432 0.0394, 0.532 -1.2873 0.0394, 0.4398 -1.5193 0.0394, 0.4718 -1.4988 0.0394, 0.5713 -1.5326 0.0394, 0.5006 -1.4685 0.0394, 0.5713 -1.4894 0.0394, 0.5216 -1.4314 0.0394, 0.5338 -1.3892 0.0394, 0.2448 -1.5122 0.0394, 0.2868 -1.5295 0.0394, 0.3424 -1.5373 0.0394, 0.3532 -1.5374 0.0394, 0.4016 -1.5324 0.0394, 0.3375 -1.1341 0.0394, 2.4606 -0.1547 0.0394, -0.2271 -1.5326 0.0394, -0.1201 -1.5326 0.0394, -0.7236 -1.4222 0.0394, -0.561 -1.4222 0.0394, -0.7634 -1.5326 0.0394, -0.5234 -1.5326 0.0394, -0.3341 -1.1612 0.0394, -0.3731 -1.1866 0.0394, -0.4658 -1.5326 0.0394, -0.3223 -1.5144 0.0394, -0.277 -1.5282 0.0394, -2.4607 -2.9106 0.0394, -0.4173 -1.4246 0.0394, -0.3953 -1.4593 0.0394, -0.3631 -1.4904 0.0394, -0.1201 -1.1389 0.0394, -0.2312 -1.1389 0.0394, -0.2881 -1.145 0.0394, -0.3884 -1.2008 0.0394, -0.412 -1.2316 0.0394, -0.4286 -1.2698 0.0394, -0.4362 -1.3114 0.0394, -0.437 -1.3308 0.0394, -0.4314 -1.3835 0.0394, -0.8211 -1.5326 0.0394, 2.4606 -2.9106 2.3228, 1.6732 -2.9106 2.3228, 2.4606 -2.9106 2.0079, 1.6732 -2.9106 2.0079, -2.1457 -2.9106 0.3543, -2.1457 -2.9106 1.5354, -2.4607 -2.9106 1.5354, 2.4606 -2.9106 1.5354, 2.1456 -2.9106 1.5354, 2.1456 -2.9106 0.3543, 2.4606 -2.0736 2.0065, 2.4606 -2.0641 2.0026, 2.4606 -0.1547 2.3228, 2.4606 -2.056 1.9963, 2.4606 -2.0497 1.9882, 2.4606 -2.0458 1.9787, 2.4606 -2.0838 2.0079, 2.4606 -2.0593 1.544, 2.4606 -2.0667 1.5393, 2.4606 -2.0751 1.5364, 2.4606 -2.0838 1.5354, 2.4606 -2.0445 1.9685, 2.4606 -2.0445 1.5748, 2.4606 -2.0454 1.566, 2.4606 -2.0484 1.5577, 2.4606 -2.053 1.5503, 2.1456 -2.0497 1.9882, 2.1456 -2.056 1.9963, 2.1456 -0.9421 2.0079, 2.1456 -2.0641 2.0026, 2.1456 -2.0736 2.0065, 2.1456 -2.0838 2.0079, 2.1456 -2.0445 1.5748, 2.1456 -2.0445 1.9685, 2.1456 -2.0458 1.9787, 2.1456 -2.0751 1.5364, 2.1456 -2.0667 1.5393, 2.1456 -0.9421 0.3543, 2.1456 -2.0593 1.544, 2.1456 -2.0838 1.5354, 2.1456 -2.053 1.5503, 2.1456 -2.0484 1.5577, 2.1456 -2.0454 1.566, -1.2008 -2.9106 2.3228, -1.2008 -2.9106 2.0079, 1.2007 -2.9106 2.3228, 1.2007 -2.9106 2.0079, -2.4607 -0.1547 2.3228, -2.4607 -2.9106 2.3228, -1.6733 -2.9106 2.3228, -1.6733 -1.3358 2.3228, -1.2008 -1.3358 2.3228, 1.6732 -1.3358 2.3228, 1.2007 -1.3358 2.3228, 1.6732 -1.3358 2.0079, 1.2007 -1.3358 2.0079, -2.1457 -0.9421 2.0079, -1.2008 -1.3358 2.0079, -1.6733 -1.3358 2.0079, -2.1457 -2.0838 2.0079, -1.6733 -2.9106 2.0079, -2.4607 -2.0838 2.0079, -2.4607 -2.9106 2.0079, -2.4607 -2.0497 1.9882, -2.4607 -2.056 1.9963, -2.4607 -2.0751 1.5364, -2.4607 -2.0667 1.5393, -2.4607 -2.0641 2.0026, -2.4607 -2.0736 2.0065, -2.4607 -2.0454 1.566, -2.4607 -2.0445 1.5748, -2.4607 -2.0593 1.544, -2.4607 -2.053 1.5503, -2.4607 -2.0484 1.5577, -2.4607 -2.0445 1.9685, -2.4607 -2.0458 1.9787, -2.4607 -2.0838 1.5354, -1.3741 -0.1547 1.5433, -1.626 -0.1547 1.5433, -1.626 -0.1547 1.2913, -0.3741 -0.1547 1.5433, -0.626 -0.1547 1.5433, -1.3741 -0.1547 1.2913, -0.626 -0.1547 1.2913, 0.374 -0.1547 1.2913, 0.6259 -0.1547 1.2913, 0.374 -0.1547 1.5433, -0.3741 -0.1547 1.2913, 0.6259 -0.1547 1.5433, 1.374 -0.1547 1.5433, 1.374 -0.1547 1.2913, 1.6259 -0.1547 1.2913, 1.6259 -0.1547 1.5433, -2.1457 -0.9421 0.3543, -2.1457 -2.0736 2.0065, -2.1457 -2.0641 2.0026, -2.1457 -2.056 1.9963, -2.1457 -2.0497 1.9882, -2.1457 -2.0458 1.9787, -2.1457 -2.0445 1.9685, -2.1457 -2.0445 1.5748, -2.1457 -2.0454 1.566, -2.1457 -2.0484 1.5577, -2.1457 -2.053 1.5503, -2.1457 -2.0593 1.544, -2.1457 -2.0667 1.5393, -2.1457 -2.0751 1.5364, -2.1457 -2.0838 1.5354, -1.3741 -0.9421 1.2913, -1.626 -0.9421 1.2913, -1.3741 -0.9421 1.5433, -1.626 -0.9421 1.5433, -0.3741 -0.9421 1.2913, -0.626 -0.9421 1.2913, 0.374 -0.9421 1.5433, 0.6259 -0.9421 1.5433, 0.374 -0.9421 1.2913, -0.3741 -0.9421 1.5433, -0.626 -0.9421 1.5433, 0.6259 -0.9421 1.2913, 1.374 -0.9421 1.2913, 1.374 -0.9421 1.5433, 1.6259 -0.9421 1.5433, 1.6259 -0.9421 1.2913
            ]
        }
        coordIndex [
            0,1,2,-1,3,4,5,-1,6,7,8,-1,8,9,6,-1,6,9,10,-1,6,10,11,-1,12,13,5,-1,14,15,16,-1,17,18,19,-1,19,18,20,-1,19,20,10,-1,21,22,23,-1,23,22,24,-1,23,24,25,-1,7,6,5,-1,5,6,26,-1,5,26,12,-1,25,27,23,-1,23,27,28,-1,23,28,29,-1,30,31,32,-1,32,31,13,-1,32,13,33,-1,33,13,12,-1,33,12,34,-1,34,12,35,-1,36,37,11,-1,17,38,18,-1,18,38,39,-1,18,39,40,-1,40,41,18,-1,18,41,42,-1,18,42,43,-1,43,44,18,-1,18,44,45,-1,18,45,46,-1,47,48,49,-1,49,48,50,-1,46,51,18,-1,18,51,48,-1,18,48,52,-1,52,48,47,-1,53,54,23,-1,23,54,55,-1,23,55,21,-1,56,57,58,-1,58,57,59,-1,58,59,60,-1,60,59,61,-1,60,61,53,-1,53,61,62,-1,53,62,54,-1,16,15,58,-1,58,15,36,-1,58,36,56,-1,10,20,11,-1,11,20,63,-1,11,63,36,-1,36,63,64,-1,36,64,65,-1,65,66,36,-1,36,66,67,-1,36,67,56,-1,28,68,2,-1,16,29,14,-1,14,29,28,-1,14,28,69,-1,69,28,2,-1,70,71,36,-1,36,71,5,-1,36,5,37,-1,37,5,13,-1,72,73,74,-1,74,73,75,-1,3,76,77,-1,78,79,80,-1,80,70,78,-1,78,70,36,-1,78,36,75,-1,75,36,81,-1,75,81,74,-1,82,83,78,-1,78,83,84,-1,78,84,79,-1,71,85,5,-1,5,85,86,-1,5,86,3,-1,3,86,87,-1,3,87,76,-1,77,88,3,-1,3,88,89,-1,3,89,90,-1,90,91,3,-1,3,91,92,-1,3,92,78,-1,78,92,93,-1,78,93,82,-1,68,7,2,-1,2,7,5,-1,2,5,0,-1,0,5,4,-1,0,4,81,-1,81,4,94,-1,81,94,74,-1,95,96,97,-1,97,96,98,-1,99,100,101,-1,102,103,15,-1,15,103,104,-1,15,104,36,-1,36,104,99,-1,36,99,81,-1,81,99,101,-1,105,106,107,-1,106,108,107,-1,107,108,109,-1,107,109,110,-1,105,107,111,-1,111,107,95,-1,111,95,97,-1,112,113,14,-1,14,113,114,-1,14,114,15,-1,15,114,115,-1,15,115,102,-1,110,116,107,-1,107,116,117,-1,107,117,69,-1,117,118,69,-1,69,118,119,-1,69,119,14,-1,14,119,120,-1,14,120,112,-1,121,122,123,-1,122,124,123,-1,123,124,125,-1,123,125,126,-1,127,128,123,-1,123,128,129,-1,123,129,121,-1,130,131,132,-1,132,131,133,-1,130,132,134,-1,134,132,104,-1,134,104,103,-1,133,135,132,-1,132,135,136,-1,132,136,123,-1,123,136,137,-1,123,137,127,-1,138,139,140,-1,140,139,141,-1,142,143,144,-1,144,145,142,-1,142,145,146,-1,142,146,107,-1,96,95,147,-1,147,95,107,-1,147,107,148,-1,148,107,146,-1,148,146,140,-1,140,146,138,-1,126,111,97,-1,97,98,126,-1,126,98,149,-1,126,149,123,-1,123,149,150,-1,123,150,151,-1,141,139,150,-1,150,139,152,-1,150,152,151,-1,151,152,153,-1,151,153,154,-1,154,153,155,-1,154,155,156,-1,156,155,157,-1,142,158,159,-1,160,161,0,-1,159,162,142,-1,142,162,163,-1,142,163,143,-1,143,163,156,-1,143,156,157,-1,0,161,1,-1,164,165,142,-1,161,166,1,-1,1,166,167,-1,1,167,142,-1,142,167,168,-1,142,168,164,-1,165,169,142,-1,142,169,170,-1,142,170,158,-1,81,101,0,-1,0,101,171,-1,0,171,160,-1,155,144,157,-1,157,144,143,-1,172,173,142,-1,142,173,1,-1,1,173,174,-1,1,174,2,-1,107,175,176,-1,142,107,172,-1,172,107,176,-1,172,176,177,-1,177,176,178,-1,179,180,69,-1,181,179,182,-1,182,179,69,-1,182,69,178,-1,178,69,2,-1,178,2,177,-1,177,2,174,-1,182,175,181,-1,181,175,107,-1,181,107,183,-1,183,107,184,-1,183,184,180,-1,180,184,185,-1,180,185,69,-1,69,185,186,-1,69,186,107,-1,107,186,187,-1,107,187,184,-1,132,188,104,-1,104,188,99,-1,154,189,151,-1,151,189,190,-1,151,190,191,-1,191,192,151,-1,151,192,193,-1,151,193,194,-1,194,195,151,-1,151,195,196,-1,151,196,188,-1,196,197,188,-1,188,197,198,-1,188,198,199,-1,199,200,188,-1,188,200,201,-1,188,201,99,-1,99,201,202,-1,99,202,100,-1,203,204,188,-1,205,123,151,-1,188,204,151,-1,151,204,206,-1,151,206,205,-1,132,207,208,-1,209,210,123,-1,211,209,212,-1,212,209,123,-1,212,123,213,-1,213,123,205,-1,213,205,208,-1,208,205,203,-1,208,203,132,-1,132,203,188,-1,212,207,211,-1,211,207,132,-1,211,132,214,-1,214,132,215,-1,214,215,210,-1,210,215,216,-1,210,216,123,-1,123,216,217,-1,123,217,132,-1,132,217,218,-1,132,218,215,-1,153,145,155,-1,155,145,144,-1,146,152,138,-1,138,152,139,-1,152,146,153,-1,153,146,145,-1,171,101,202,-1,202,101,100,-1,195,194,165,-1,165,194,169,-1,195,165,196,-1,196,165,164,-1,196,164,197,-1,197,164,168,-1,197,168,198,-1,198,168,167,-1,198,167,199,-1,199,167,166,-1,199,166,200,-1,200,166,161,-1,200,161,201,-1,201,161,160,-1,201,160,202,-1,202,160,171,-1,169,194,170,-1,170,194,193,-1,170,193,158,-1,158,193,192,-1,158,192,159,-1,159,192,191,-1,159,191,162,-1,162,191,190,-1,162,190,163,-1,163,190,189,-1,163,189,156,-1,156,189,154,-1,147,149,96,-1,96,149,98,-1,150,148,141,-1,141,148,140,-1,148,150,147,-1,147,150,149,-1,134,103,115,-1,115,103,102,-1,117,116,127,-1,127,116,128,-1,117,127,118,-1,118,127,137,-1,118,137,119,-1,119,137,136,-1,119,136,120,-1,120,136,135,-1,120,135,112,-1,112,135,133,-1,112,133,113,-1,113,133,131,-1,113,131,114,-1,114,131,130,-1,114,130,115,-1,115,130,134,-1,111,126,105,-1,105,126,125,-1,105,125,106,-1,106,125,124,-1,106,124,108,-1,108,124,122,-1,108,122,109,-1,109,122,121,-1,109,121,110,-1,110,121,129,-1,110,129,116,-1,116,129,128,-1,
        ]
    }
}
Shape{
    appearance Appearance {
        material  Material {
            diffuseColor 0.6666666666666666 0.6666666666666666 0.6666666666666666
            specularColor 0.4666666666666667 0.4666666666666667 0.4666666666666667
            ambientIntensity 0.6667
            transparency 0.0
            shininess 0.5
        }
    }
    geometry IndexedFaceSet {
        ccw TRUE
        solid FALSE
        coord DEF co Coordinate {
            point [
                1.4527 -2.6744 1.4646, 1.4527 -2.6744 1.3701, 1.5472 -2.6744 1.4646, 1.5472 -2.6744 1.3701, 1.374 -2.458 1.5433, 1.374 -0.9421 1.5433, 1.374 -2.458 1.2913, 1.374 -0.9421 1.2913, 1.6259 -2.458 1.2913, 1.6259 -0.9421 1.2913, 1.6259 -2.458 1.5433, 1.6259 -0.9421 1.5433, 1.6259 -0.1232 -0.9648, 1.6259 0.1288 -0.9648, 1.6259 -0.1232 1.2598, 1.6259 0.1288 1.2598, 1.6259 -0.124 1.2669, 1.6259 0.1217 1.3229, 1.6259 -0.1263 1.2735, 1.6259 0.1007 1.3828, 1.6259 -0.1301 1.2795, 1.6259 0.0669 1.4366, 1.6259 -0.1351 1.2845, 1.6259 0.022 1.4815, 1.6259 -0.141 1.2882, 1.6259 -0.0317 1.5152, 1.6259 -0.1477 1.2905, 1.6259 -0.0916 1.5362, 1.6259 -0.1547 1.2913, 1.6259 -0.1547 1.5433, 1.374 -0.1547 1.2913, 1.374 -0.1547 1.5433, 1.374 -0.1477 1.2905, 1.374 -0.0916 1.5362, 1.374 -0.141 1.2882, 1.374 -0.0317 1.5152, 1.374 -0.1351 1.2845, 1.374 0.022 1.4815, 1.374 -0.1301 1.2795, 1.374 0.0669 1.4366, 1.374 -0.1263 1.2735, 1.374 0.1007 1.3828, 1.374 -0.124 1.2669, 1.374 0.1217 1.3229, 1.374 -0.1232 1.2598, 1.374 0.1288 1.2598, 1.374 -0.1232 -0.9648, 1.374 0.1288 -0.9648, 1.4527 -0.0445 -1.1811, 1.4527 0.05 -1.1811, 1.5472 -0.0445 -1.1811, 1.5472 0.05 -1.1811, 0.4527 -2.6744 1.4646, 0.4527 -2.6744 1.3701, 0.5472 -2.6744 1.4646, 0.5472 -2.6744 1.3701, 0.374 -2.458 1.5433, 0.374 -0.9421 1.5433, 0.374 -2.458 1.2913, 0.374 -0.9421 1.2913, 0.6259 -2.458 1.2913, 0.6259 -0.9421 1.2913, 0.6259 -2.458 1.5433, 0.6259 -0.9421 1.5433, 0.6259 -0.1232 -0.9648, 0.6259 0.1288 -0.9648, 0.6259 -0.1232 1.2598, 0.6259 0.1288 1.2598, 0.6259 -0.124 1.2669, 0.6259 0.1217 1.3229, 0.6259 -0.1263 1.2735, 0.6259 0.1007 1.3828, 0.6259 -0.1301 1.2795, 0.6259 0.0669 1.4366, 0.6259 -0.1351 1.2845, 0.6259 0.022 1.4815, 0.6259 -0.141 1.2882, 0.6259 -0.0317 1.5152, 0.6259 -0.1477 1.2905, 0.6259 -0.0916 1.5362, 0.6259 -0.1547 1.2913, 0.6259 -0.1547 1.5433, 0.374 -0.1547 1.2913, 0.374 -0.1547 1.5433, 0.374 -0.1477 1.2905, 0.374 -0.0916 1.5362, 0.374 -0.141 1.2882, 0.374 -0.0317 1.5152, 0.374 -0.1351 1.2845, 0.374 0.022 1.4815, 0.374 -0.1301 1.2795, 0.374 0.0669 1.4366, 0.374 -0.1263 1.2735, 0.374 0.1007 1.3828, 0.374 -0.124 1.2669, 0.374 0.1217 1.3229, 0.374 -0.1232 1.2598, 0.374 0.1288 1.2598, 0.374 -0.1232 -0.9648, 0.374 0.1288 -0.9648, 0.4527 -0.0445 -1.1811, 0.4527 0.05 -1.1811, 0.5472 -0.0445 -1.1811, 0.5472 0.05 -1.1811, -0.5473 -2.6744 1.4646, -0.5473 -2.6744 1.3701, -0.4528 -2.6744 1.4646, -0.4528 -2.6744 1.3701, -0.626 -2.458 1.5433, -0.626 -0.9421 1.5433, -0.626 -2.458 1.2913, -0.626 -0.9421 1.2913, -0.3741 -2.458 1.2913, -0.3741 -0.9421 1.2913, -0.3741 -2.458 1.5433, -0.3741 -0.9421 1.5433, -0.3741 -0.1232 -0.9648, -0.3741 0.1288 -0.9648, -0.3741 -0.1232 1.2598, -0.3741 0.1288 1.2598, -0.3741 -0.124 1.2669, -0.3741 0.1217 1.3229, -0.3741 -0.1263 1.2735, -0.3741 0.1007 1.3828, -0.3741 -0.1301 1.2795, -0.3741 0.0669 1.4366, -0.3741 -0.1351 1.2845, -0.3741 0.022 1.4815, -0.3741 -0.141 1.2882, -0.3741 -0.0317 1.5152, -0.3741 -0.1477 1.2905, -0.3741 -0.0916 1.5362, -0.3741 -0.1547 1.2913, -0.3741 -0.1547 1.5433, -0.626 -0.1547 1.2913, -0.626 -0.1547 1.5433, -0.626 -0.1477 1.2905, -0.626 -0.0916 1.5362, -0.626 -0.141 1.2882, -0.626 -0.0317 1.5152, -0.626 -0.1351 1.2845, -0.626 0.022 1.4815, -0.626 -0.1301 1.2795, -0.626 0.0669 1.4366, -0.626 -0.1263 1.2735, -0.626 0.1007 1.3828, -0.626 -0.124 1.2669, -0.626 0.1217 1.3229, -0.626 -0.1232 1.2598, -0.626 0.1288 1.2598, -0.626 -0.1232 -0.9648, -0.626 0.1288 -0.9648, -0.5473 -0.0445 -1.1811, -0.5473 0.05 -1.1811, -0.4528 -0.0445 -1.1811, -0.4528 0.05 -1.1811, -1.5473 -2.6744 1.4646, -1.5473 -2.6744 1.3701, -1.4528 -2.6744 1.4646, -1.4528 -2.6744 1.3701, -1.626 -2.458 1.5433, -1.626 -0.9421 1.5433, -1.626 -2.458 1.2913, -1.626 -0.9421 1.2913, -1.3741 -2.458 1.2913, -1.3741 -0.9421 1.2913, -1.3741 -2.458 1.5433, -1.3741 -0.9421 1.5433, -1.3741 -0.1232 -0.9648, -1.3741 0.1288 -0.9648, -1.3741 -0.1232 1.2598, -1.3741 0.1288 1.2598, -1.3741 -0.124 1.2669, -1.3741 0.1217 1.3229, -1.3741 -0.1263 1.2735, -1.3741 0.1007 1.3828, -1.3741 -0.1301 1.2795, -1.3741 0.0669 1.4366, -1.3741 -0.1351 1.2845, -1.3741 0.022 1.4815, -1.3741 -0.141 1.2882, -1.3741 -0.0317 1.5152, -1.3741 -0.1477 1.2905, -1.3741 -0.0916 1.5362, -1.3741 -0.1547 1.2913, -1.3741 -0.1547 1.5433, -1.626 -0.1547 1.2913, -1.626 -0.1547 1.5433, -1.626 -0.1477 1.2905, -1.626 -0.0916 1.5362, -1.626 -0.141 1.2882, -1.626 -0.0317 1.5152, -1.626 -0.1351 1.2845, -1.626 0.022 1.4815, -1.626 -0.1301 1.2795, -1.626 0.0669 1.4366, -1.626 -0.1263 1.2735, -1.626 0.1007 1.3828, -1.626 -0.124 1.2669, -1.626 0.1217 1.3229, -1.626 -0.1232 1.2598, -1.626 0.1288 1.2598, -1.626 -0.1232 -0.9648, -1.626 0.1288 -0.9648, -1.5473 -0.0445 -1.1811, -1.5473 0.05 -1.1811, -1.4528 -0.0445 -1.1811, -1.4528 0.05 -1.1811
            ]
        }
        coordIndex [
            0,1,2,-1,2,1,3,-1,4,5,6,-1,6,5,7,-1,8,9,10,-1,10,9,11,-1,6,7,8,-1,8,7,9,-1,10,11,4,-1,4,11,5,-1,12,13,14,-1,14,13,15,-1,14,15,16,-1,16,15,17,-1,16,17,18,-1,18,17,19,-1,18,19,20,-1,20,19,21,-1,20,21,22,-1,22,21,23,-1,22,23,24,-1,24,23,25,-1,24,25,26,-1,26,25,27,-1,26,27,28,-1,28,27,29,-1,30,31,32,-1,32,31,33,-1,32,33,34,-1,34,33,35,-1,34,35,36,-1,36,35,37,-1,36,37,38,-1,38,37,39,-1,38,39,40,-1,40,39,41,-1,40,41,42,-1,42,41,43,-1,42,43,44,-1,44,43,45,-1,44,45,46,-1,46,45,47,-1,12,14,46,-1,46,14,44,-1,48,49,50,-1,50,49,51,-1,47,45,13,-1,13,45,15,-1,15,45,43,-1,15,43,17,-1,17,43,41,-1,17,41,19,-1,19,41,39,-1,19,39,21,-1,21,39,37,-1,21,37,23,-1,23,37,35,-1,23,35,25,-1,25,35,33,-1,25,33,27,-1,27,33,31,-1,27,31,29,-1,28,30,26,-1,26,30,32,-1,26,32,24,-1,24,32,34,-1,24,34,22,-1,22,34,36,-1,22,36,20,-1,20,36,38,-1,20,38,18,-1,18,38,40,-1,18,40,16,-1,16,40,42,-1,16,42,14,-1,14,42,44,-1,13,51,47,-1,47,51,49,-1,12,50,13,-1,13,50,51,-1,48,46,49,-1,49,46,47,-1,46,48,12,-1,12,48,50,-1,8,3,6,-1,6,3,1,-1,10,2,8,-1,8,2,3,-1,0,4,1,-1,1,4,6,-1,4,0,10,-1,10,0,2,-1,52,53,54,-1,54,53,55,-1,56,57,58,-1,58,57,59,-1,60,61,62,-1,62,61,63,-1,58,59,60,-1,60,59,61,-1,62,63,56,-1,56,63,57,-1,64,65,66,-1,66,65,67,-1,66,67,68,-1,68,67,69,-1,68,69,70,-1,70,69,71,-1,70,71,72,-1,72,71,73,-1,72,73,74,-1,74,73,75,-1,74,75,76,-1,76,75,77,-1,76,77,78,-1,78,77,79,-1,78,79,80,-1,80,79,81,-1,82,83,84,-1,84,83,85,-1,84,85,86,-1,86,85,87,-1,86,87,88,-1,88,87,89,-1,88,89,90,-1,90,89,91,-1,90,91,92,-1,92,91,93,-1,92,93,94,-1,94,93,95,-1,94,95,96,-1,96,95,97,-1,96,97,98,-1,98,97,99,-1,64,66,98,-1,98,66,96,-1,100,101,102,-1,102,101,103,-1,99,97,65,-1,65,97,67,-1,67,97,95,-1,67,95,69,-1,69,95,93,-1,69,93,71,-1,71,93,91,-1,71,91,73,-1,73,91,89,-1,73,89,75,-1,75,89,87,-1,75,87,77,-1,77,87,85,-1,77,85,79,-1,79,85,83,-1,79,83,81,-1,80,82,78,-1,78,82,84,-1,78,84,76,-1,76,84,86,-1,76,86,74,-1,74,86,88,-1,74,88,72,-1,72,88,90,-1,72,90,70,-1,70,90,92,-1,70,92,68,-1,68,92,94,-1,68,94,66,-1,66,94,96,-1,104,105,106,-1,106,105,107,-1,108,109,110,-1,110,109,111,-1,112,113,114,-1,114,113,115,-1,110,111,112,-1,112,111,113,-1,114,115,108,-1,108,115,109,-1,116,117,118,-1,118,117,119,-1,118,119,120,-1,120,119,121,-1,120,121,122,-1,122,121,123,-1,122,123,124,-1,124,123,125,-1,124,125,126,-1,126,125,127,-1,126,127,128,-1,128,127,129,-1,128,129,130,-1,130,129,131,-1,130,131,132,-1,132,131,133,-1,134,135,136,-1,136,135,137,-1,136,137,138,-1,138,137,139,-1,138,139,140,-1,140,139,141,-1,140,141,142,-1,142,141,143,-1,142,143,144,-1,144,143,145,-1,144,145,146,-1,146,145,147,-1,146,147,148,-1,148,147,149,-1,148,149,150,-1,150,149,151,-1,116,118,150,-1,150,118,148,-1,152,153,154,-1,154,153,155,-1,151,149,117,-1,117,149,119,-1,119,149,147,-1,119,147,121,-1,121,147,145,-1,121,145,123,-1,123,145,143,-1,123,143,125,-1,125,143,141,-1,125,141,127,-1,127,141,139,-1,127,139,129,-1,129,139,137,-1,129,137,131,-1,131,137,135,-1,131,135,133,-1,132,134,130,-1,130,134,136,-1,130,136,128,-1,128,136,138,-1,128,138,126,-1,126,138,140,-1,126,140,124,-1,124,140,142,-1,124,142,122,-1,122,142,144,-1,122,144,120,-1,120,144,146,-1,120,146,118,-1,118,146,148,-1,156,157,158,-1,158,157,159,-1,160,161,162,-1,162,161,163,-1,164,165,166,-1,166,165,167,-1,162,163,164,-1,164,163,165,-1,166,167,160,-1,160,167,161,-1,168,169,170,-1,170,169,171,-1,170,171,172,-1,172,171,173,-1,172,173,174,-1,174,173,175,-1,174,175,176,-1,176,175,177,-1,176,177,178,-1,178,177,179,-1,178,179,180,-1,180,179,181,-1,180,181,182,-1,182,181,183,-1,182,183,184,-1,184,183,185,-1,186,187,188,-1,188,187,189,-1,188,189,190,-1,190,189,191,-1,190,191,192,-1,192,191,193,-1,192,193,194,-1,194,193,195,-1,194,195,196,-1,196,195,197,-1,196,197,198,-1,198,197,199,-1,198,199,200,-1,200,199,201,-1,200,201,202,-1,202,201,203,-1,168,170,202,-1,202,170,200,-1,204,205,206,-1,206,205,207,-1,203,201,169,-1,169,201,171,-1,171,201,199,-1,171,199,173,-1,173,199,197,-1,173,197,175,-1,175,197,195,-1,175,195,177,-1,177,195,193,-1,177,193,179,-1,179,193,191,-1,179,191,181,-1,181,191,189,-1,181,189,183,-1,183,189,187,-1,183,187,185,-1,184,186,182,-1,182,186,188,-1,182,188,180,-1,180,188,190,-1,180,190,178,-1,178,190,192,-1,178,192,176,-1,176,192,194,-1,176,194,174,-1,174,194,196,-1,174,196,172,-1,172,196,198,-1,172,198,170,-1,170,198,200,-1,65,103,99,-1,99,103,101,-1,64,102,65,-1,65,102,103,-1,100,98,101,-1,101,98,99,-1,98,100,64,-1,64,100,102,-1,60,55,58,-1,58,55,53,-1,62,54,60,-1,60,54,55,-1,52,56,53,-1,53,56,58,-1,56,52,62,-1,62,52,54,-1,117,155,151,-1,151,155,153,-1,116,154,117,-1,117,154,155,-1,152,150,153,-1,153,150,151,-1,150,152,116,-1,116,152,154,-1,112,107,110,-1,110,107,105,-1,114,106,112,-1,112,106,107,-1,104,108,105,-1,105,108,110,-1,108,104,114,-1,114,104,106,-1,169,207,203,-1,203,207,205,-1,168,206,169,-1,169,206,207,-1,204,202,205,-1,205,202,203,-1,202,204,168,-1,168,204,206,-1,164,159,162,-1,162,159,157,-1,166,158,164,-1,164,158,159,-1,156,160,157,-1,157,160,162,-1,160,156,166,-1,166,156,158,-1,
        ]
    }
}
Shape{
    appearance Appearance {
        material  Material {
            diffuseColor 1.0 1.0 1.0
            specularColor 0.8784313725490196 0.8784313725490196 0.8784313725490196
            ambientIntensity 1.0
            transparency 0.0
            shininess 0.5
        }
    }
    geometry IndexedFaceSet {
        ccw TRUE
        solid FALSE
        coord DEF co Coordinate {
            point [
                -0.6674 -1.1389 0.0787, -0.8211 -1.5326 0.0787, -0.6674 -1.1389 0.0394, -0.8211 -1.5326 0.0394, -0.7634 -1.5326 0.0787, -0.7634 -1.5326 0.0394, -0.7236 -1.4222 0.0787, -0.7236 -1.4222 0.0394, -0.561 -1.4222 0.0787, -0.561 -1.4222 0.0394, -0.5234 -1.5326 0.0787, -0.5234 -1.5326 0.0394, -0.4658 -1.5326 0.0787, -0.4658 -1.5326 0.0394, -0.6146 -1.1389 0.0787, -0.6146 -1.1389 0.0394, -0.5742 -1.379 0.0787, -0.633 -1.2146 0.0787, -0.6367 -1.2009 0.0787, -0.6393 -1.187 0.0787, -0.6406 -1.187 0.0787, -0.6431 -1.2009 0.0787, -0.6466 -1.2146 0.0787, -0.7059 -1.379 0.0787, -0.5742 -1.379 0.0394, -0.7059 -1.379 0.0394, -0.633 -1.2146 0.0394, -0.6367 -1.2009 0.0394, -0.6393 -1.187 0.0394, -0.6406 -1.187 0.0394, -0.6431 -1.2009 0.0394, -0.6466 -1.2146 0.0394, -0.2271 -1.5326 0.0787, -0.1201 -1.5326 0.0787, -0.2271 -1.5326 0.0394, -0.1201 -1.5326 0.0394, -0.1201 -1.1389 0.0787, -0.1201 -1.1389 0.0394, -0.2312 -1.1389 0.0787, -0.2312 -1.1389 0.0394, -0.437 -1.3308 0.0787, -0.437 -1.3308 0.0394, -0.4362 -1.3114 0.0394, -0.4362 -1.3114 0.0787, -0.4286 -1.2698 0.0394, -0.4286 -1.2698 0.0787, -0.412 -1.2316 0.0394, -0.412 -1.2316 0.0787, -0.3884 -1.2008 0.0394, -0.3884 -1.2008 0.0787, -0.3731 -1.1866 0.0394, -0.3731 -1.1866 0.0787, -0.3341 -1.1612 0.0394, -0.3341 -1.1612 0.0787, -0.2881 -1.145 0.0394, -0.2881 -1.145 0.0787, -0.277 -1.5282 0.0394, -0.277 -1.5282 0.0787, -0.3223 -1.5144 0.0394, -0.3223 -1.5144 0.0787, -0.3631 -1.4904 0.0394, -0.3631 -1.4904 0.0787, -0.3953 -1.4593 0.0394, -0.3953 -1.4593 0.0787, -0.4173 -1.4246 0.0394, -0.4173 -1.4246 0.0787, -0.4314 -1.3835 0.0394, -0.4314 -1.3835 0.0787, -0.3841 -1.332 0.0787, -0.3808 -1.2928 0.0787, -0.3716 -1.2617 0.0787, -0.3581 -1.2375 0.0787, -0.339 -1.2172 0.0787, -0.3103 -1.1986 0.0787, -0.2778 -1.1872 0.0787, -0.2309 -1.1822 0.0787, -0.1729 -1.1822 0.0787, -0.1729 -1.4894 0.0787, -0.2288 -1.4894 0.0787, -0.2704 -1.4856 0.0787, -0.3035 -1.4752 0.0787, -0.3301 -1.4594 0.0787, -0.3524 -1.4375 0.0787, -0.3688 -1.4106 0.0787, -0.3793 -1.3793 0.0787, -0.2309 -1.1822 0.0394, -0.1729 -1.1822 0.0394, -0.2778 -1.1872 0.0394, -0.3103 -1.1986 0.0394, -0.339 -1.2172 0.0394, -0.3581 -1.2375 0.0394, -0.3716 -1.2617 0.0394, -0.3808 -1.2928 0.0394, -0.3841 -1.332 0.0394, -0.3793 -1.3793 0.0394, -0.3688 -1.4106 0.0394, -0.3524 -1.4375 0.0394, -0.3301 -1.4594 0.0394, -0.3035 -1.4752 0.0394, -0.2704 -1.4856 0.0394, -0.2288 -1.4894 0.0394, -0.1729 -1.4894 0.0394, -0.0433 -1.4894 0.0787, -0.0433 -1.5326 0.0787, -0.0433 -1.4894 0.0394, -0.0433 -1.5326 0.0394, 0.168 -1.5326 0.0787, 0.168 -1.5326 0.0394, 0.168 -1.1389 0.0787, 0.168 -1.1389 0.0394, -0.0336 -1.1389 0.0787, -0.0336 -1.1389 0.0394, -0.0336 -1.1822 0.0787, -0.0336 -1.1822 0.0394, 0.1152 -1.1822 0.0787, 0.1152 -1.1822 0.0394, 0.1152 -1.3118 0.0787, 0.1152 -1.3118 0.0394, -0.024 -1.3118 0.0787, -0.024 -1.3118 0.0394, -0.024 -1.355 0.0787, -0.024 -1.355 0.0394, 0.1152 -1.355 0.0787, 0.1152 -1.355 0.0394, 0.1152 -1.4894 0.0787, 0.1152 -1.4894 0.0394, 0.2448 -1.469 0.0787, 0.2448 -1.5122 0.0787, 0.2448 -1.469 0.0394, 0.2448 -1.5122 0.0394, 0.3532 -1.5374 0.0787, 0.3532 -1.5374 0.0394, 0.3424 -1.5373 0.0394, 0.3424 -1.5373 0.0787, 0.2868 -1.5295 0.0394, 0.2868 -1.5295 0.0787, 0.5377 -1.3432 0.0787, 0.5377 -1.3432 0.0394, 0.5338 -1.3892 0.0394, 0.5338 -1.3892 0.0787, 0.5216 -1.4314 0.0394, 0.5216 -1.4314 0.0787, 0.5006 -1.4685 0.0394, 0.5006 -1.4685 0.0787, 0.4718 -1.4988 0.0394, 0.4718 -1.4988 0.0787, 0.4398 -1.5193 0.0394, 0.4398 -1.5193 0.0787, 0.4016 -1.5324 0.0394, 0.4016 -1.5324 0.0787, 0.3375 -1.1341 0.0394, 0.3653 -1.1365 0.0394, 0.3375 -1.1341 0.0787, 0.379 -1.1377 0.0787, 0.379 -1.1377 0.0394, 0.4222 -1.1507 0.0394, 0.4222 -1.1507 0.0787, 0.459 -1.1722 0.0394, 0.459 -1.1722 0.0787, 0.4934 -1.2052 0.0394, 0.4934 -1.2052 0.0787, 0.5169 -1.2425 0.0394, 0.5169 -1.2425 0.0787, 0.532 -1.2873 0.0394, 0.532 -1.2873 0.0787, 0.3027 -1.1365 0.0394, 0.2903 -1.1374 0.0787, 0.2903 -1.1374 0.0394, 0.2448 -1.1497 0.0787, 0.2448 -1.1497 0.0394, 0.2448 -1.2026 0.0787, 0.2448 -1.2026 0.0394, 0.337 -1.1774 0.0787, 0.337 -1.1774 0.0394, 0.2892 -1.1836 0.0394, 0.2892 -1.1836 0.0787, 0.4849 -1.34 0.0787, 0.4849 -1.34 0.0394, 0.4831 -1.3104 0.0394, 0.4831 -1.3104 0.0787, 0.4727 -1.2678 0.0394, 0.4727 -1.2678 0.0787, 0.4567 -1.2374 0.0394, 0.4567 -1.2374 0.0787, 0.433 -1.211 0.0394, 0.433 -1.211 0.0787, 0.4051 -1.1923 0.0394, 0.4051 -1.1923 0.0787, 0.3758 -1.1817 0.0394, 0.3758 -1.1817 0.0787, 0.3459 -1.4942 0.0787, 0.3459 -1.4942 0.0394, 0.3824 -1.4902 0.0394, 0.3824 -1.4902 0.0787, 0.4114 -1.4795 0.0394, 0.4114 -1.4795 0.0787, 0.4355 -1.4631 0.0394, 0.4355 -1.4631 0.0787, 0.4538 -1.4438 0.0394, 0.4538 -1.4438 0.0787, 0.4702 -1.4164 0.0394, 0.4702 -1.4164 0.0787, 0.4809 -1.3826 0.0394, 0.4809 -1.3826 0.0787, 0.2519 -1.4729 0.0394, 0.2519 -1.4729 0.0787, 0.2936 -1.4884 0.0394, 0.2936 -1.4884 0.0787, 0.5713 -1.4894 0.0787, 0.5713 -1.5326 0.0787, 0.5713 -1.4894 0.0394, 0.5713 -1.5326 0.0394, 0.773 -1.5326 0.0787, 0.773 -1.5326 0.0394, 0.773 -1.1389 0.0787, 0.773 -1.1389 0.0394, 0.7201 -1.1389 0.0787, 0.7201 -1.1389 0.0394, 0.7201 -1.4894 0.0787, 0.7201 -1.4894 0.0394
            ]
        }
        coordIndex [
            0,1,2,-1,2,1,3,-1,1,4,3,-1,3,4,5,-1,4,6,5,-1,5,6,7,-1,6,8,7,-1,7,8,9,-1,8,10,9,-1,9,10,11,-1,10,12,11,-1,11,12,13,-1,12,14,13,-1,13,14,15,-1,14,0,15,-1,15,0,2,-1,16,17,14,-1,12,10,8,-1,17,18,14,-1,14,18,19,-1,14,19,0,-1,0,19,20,-1,0,20,21,-1,21,22,0,-1,0,22,23,-1,0,23,1,-1,4,1,6,-1,6,1,23,-1,6,23,8,-1,8,23,16,-1,8,16,12,-1,12,16,14,-1,16,23,24,-1,24,23,25,-1,17,16,26,-1,26,16,24,-1,17,26,27,-1,17,27,18,-1,18,27,28,-1,18,28,19,-1,20,19,29,-1,29,19,28,-1,20,29,30,-1,20,30,21,-1,21,30,31,-1,21,31,22,-1,23,22,25,-1,25,22,31,-1,32,33,34,-1,34,33,35,-1,33,36,35,-1,35,36,37,-1,36,38,37,-1,37,38,39,-1,40,41,42,-1,40,42,43,-1,43,42,44,-1,43,44,45,-1,45,44,46,-1,45,46,47,-1,47,46,48,-1,47,48,49,-1,49,48,50,-1,49,50,51,-1,51,50,52,-1,51,52,53,-1,53,52,54,-1,53,54,55,-1,55,54,39,-1,55,39,38,-1,32,34,56,-1,32,56,57,-1,57,56,58,-1,57,58,59,-1,59,58,60,-1,59,60,61,-1,61,60,62,-1,61,62,63,-1,63,62,64,-1,63,64,65,-1,65,64,66,-1,65,66,67,-1,67,66,41,-1,67,41,40,-1,67,40,68,-1,68,40,43,-1,68,43,69,-1,69,43,45,-1,69,45,70,-1,70,45,47,-1,70,47,71,-1,71,47,49,-1,71,49,72,-1,72,49,51,-1,72,51,73,-1,73,51,53,-1,73,53,74,-1,74,53,55,-1,74,55,75,-1,75,55,38,-1,75,38,76,-1,76,38,36,-1,76,36,77,-1,77,36,33,-1,77,33,78,-1,78,33,32,-1,78,32,79,-1,79,32,57,-1,79,57,80,-1,80,57,59,-1,80,59,81,-1,81,59,61,-1,81,61,82,-1,82,61,63,-1,82,63,83,-1,83,63,65,-1,83,65,84,-1,84,65,67,-1,84,67,68,-1,75,76,85,-1,85,76,86,-1,75,85,87,-1,75,87,74,-1,74,87,88,-1,74,88,73,-1,73,88,89,-1,73,89,72,-1,72,89,90,-1,72,90,71,-1,71,90,91,-1,71,91,70,-1,70,91,92,-1,70,92,69,-1,69,92,93,-1,69,93,68,-1,68,93,94,-1,68,94,84,-1,84,94,95,-1,84,95,83,-1,83,95,96,-1,83,96,82,-1,82,96,97,-1,82,97,81,-1,81,97,98,-1,81,98,80,-1,80,98,99,-1,80,99,79,-1,79,99,100,-1,79,100,78,-1,77,78,101,-1,101,78,100,-1,76,77,86,-1,86,77,101,-1,102,103,104,-1,104,103,105,-1,103,106,105,-1,105,106,107,-1,106,108,107,-1,107,108,109,-1,108,110,109,-1,109,110,111,-1,110,112,111,-1,111,112,113,-1,112,114,113,-1,113,114,115,-1,114,116,115,-1,115,116,117,-1,116,118,117,-1,117,118,119,-1,118,120,119,-1,119,120,121,-1,120,122,121,-1,121,122,123,-1,122,124,123,-1,123,124,125,-1,124,102,125,-1,125,102,104,-1,106,103,102,-1,102,124,106,-1,106,124,122,-1,106,122,108,-1,112,110,114,-1,114,110,108,-1,114,108,116,-1,116,108,122,-1,116,122,118,-1,118,122,120,-1,126,127,128,-1,128,127,129,-1,130,131,132,-1,130,132,133,-1,133,132,134,-1,133,134,135,-1,135,134,129,-1,135,129,127,-1,136,137,138,-1,136,138,139,-1,139,138,140,-1,139,140,141,-1,141,140,142,-1,141,142,143,-1,143,142,144,-1,143,144,145,-1,145,144,146,-1,145,146,147,-1,147,146,148,-1,147,148,149,-1,149,148,131,-1,149,131,130,-1,150,151,152,-1,152,151,153,-1,151,154,153,-1,153,154,155,-1,153,155,156,-1,156,155,157,-1,156,157,158,-1,158,157,159,-1,158,159,160,-1,160,159,161,-1,160,161,162,-1,162,161,163,-1,162,163,164,-1,164,163,137,-1,164,137,136,-1,150,152,165,-1,165,152,166,-1,165,166,167,-1,167,166,168,-1,167,168,169,-1,168,170,169,-1,169,170,171,-1,172,173,174,-1,172,174,175,-1,175,174,171,-1,175,171,170,-1,176,177,178,-1,176,178,179,-1,179,178,180,-1,179,180,181,-1,181,180,182,-1,181,182,183,-1,183,182,184,-1,183,184,185,-1,185,184,186,-1,185,186,187,-1,187,186,188,-1,187,188,189,-1,189,188,173,-1,189,173,172,-1,190,191,192,-1,190,192,193,-1,193,192,194,-1,193,194,195,-1,195,194,196,-1,195,196,197,-1,197,196,198,-1,197,198,199,-1,199,198,200,-1,199,200,201,-1,201,200,202,-1,201,202,203,-1,203,202,177,-1,203,177,176,-1,126,128,204,-1,126,204,205,-1,205,204,206,-1,205,206,207,-1,207,206,191,-1,207,191,190,-1,193,130,190,-1,190,130,133,-1,190,133,207,-1,207,133,135,-1,207,135,205,-1,205,135,127,-1,205,127,126,-1,170,168,175,-1,175,168,166,-1,175,166,172,-1,172,166,152,-1,172,152,189,-1,189,152,153,-1,189,153,187,-1,187,153,156,-1,187,156,185,-1,185,156,158,-1,185,158,183,-1,183,158,160,-1,183,160,181,-1,181,160,162,-1,181,162,179,-1,179,162,164,-1,179,164,176,-1,176,164,136,-1,176,136,203,-1,203,136,139,-1,203,139,201,-1,201,139,141,-1,201,141,199,-1,199,141,143,-1,199,143,197,-1,197,143,145,-1,197,145,195,-1,195,145,147,-1,195,147,193,-1,193,147,149,-1,193,149,130,-1,208,209,210,-1,210,209,211,-1,209,212,211,-1,211,212,213,-1,212,214,213,-1,213,214,215,-1,214,216,215,-1,215,216,217,-1,216,218,217,-1,217,218,219,-1,218,208,219,-1,219,208,210,-1,216,214,218,-1,218,214,212,-1,218,212,208,-1,208,212,209,-1,
        ]
    }
}
Shape{
    appearance Appearance {
        material  Material {
            diffuseColor 1.0 1.0 1.0
            specularColor 0.30196078431372547 0.30196078431372547 0.30196078431372547
            ambientIntensity 1.0
            transparency 0.0
            shininess 0.5
        }
    }
    geometry IndexedFaceSet {
        ccw TRUE
        solid FALSE
        coord DEF co Coordinate {
            point [
                -0.5742 -1.379 0.0394, -0.7059 -1.379 0.0394, -0.633 -1.2146 0.0394, -0.6466 -1.2146 0.0394, -0.6367 -1.2009 0.0394, -0.6431 -1.2009 0.0394, -0.6393 -1.187 0.0394, -0.6406 -1.187 0.0394, -0.1729 -1.1822 0.0394, -0.1729 -1.4894 0.0394, -0.2309 -1.1822 0.0394, -0.2288 -1.4894 0.0394, -0.3793 -1.3793 0.0394, -0.3841 -1.332 0.0394, -0.3808 -1.2928 0.0394, -0.3716 -1.2617 0.0394, -0.2778 -1.1872 0.0394, -0.2704 -1.4856 0.0394, -0.3035 -1.4752 0.0394, -0.3301 -1.4594 0.0394, -0.3581 -1.2375 0.0394, -0.339 -1.2172 0.0394, -0.3103 -1.1986 0.0394, -0.3524 -1.4375 0.0394, -0.3688 -1.4106 0.0394
            ]
        }
        coordIndex [
            0,1,2,-1,2,1,3,-1,2,3,4,-1,4,3,5,-1,4,5,6,-1,6,5,7,-1,8,9,10,-1,10,9,11,-1,12,13,10,-1,13,14,10,-1,10,14,15,-1,10,15,16,-1,11,17,10,-1,10,17,18,-1,10,18,19,-1,20,21,15,-1,15,21,22,-1,15,22,16,-1,19,23,10,-1,10,23,24,-1,10,24,12,-1,
        ]
    }
}