#VRML V2.0 utf8
# 3D model generated by kicad-lcsc-manager
# Based on easyeda2kicad.py v1.0.1

Shape{
    appearance Appearance {
        material  Material {
            diffuseColor 1.0 1.0 1.0
            specularColor 0.5019607843137255 0.5019607843137255 0.5019607843137255
            ambientIntensity 1.0
            transparency 0.0
            shininess 0.5
        }
    }
    geometry IndexedFaceSet {
        ccw TRUE
        solid FALSE
        coord DEF co Coordinate {
            point [
                -1.505 1.2972 2.3379, -1.505 1.2972 2.4778, -0.4503 1.2972 2.4778, -2.4606 1.2972 2.6307, -2.4606 1.2972 2.7559, -1.505 1.2972 2.7559, -0.0871 1.2972 2.4768, -0.0951 1.2972 2.4778, -0.0526 1.2972 2.4778, -0.1678 1.2972 2.2, -0.1666 1.2972 2.1999, -0.1918 1.2972 2.1999, 0.2468 1.2972 2.4871, 0.2334 1.2972 2.4778, 0.0565 1.2972 2.4778, 0.2164 1.2972 2.4661, 0.1906 1.2972 2.436, 0.1063 1.2972 2.3379, 0.0565 1.2972 2.3379, 0.113 1.2972 2.3546, 0.1285 1.2972 2.3762, 0.1491 1.2972 2.3936, 0.1754 1.2972 2.4061, 0.1717 1.2972 2.4048, 0.3196 1.2972 2.5055, 0.2846 1.2972 2.5014, 0.0565 1.2972 2.6307, 0.3548 1.2972 2.5015, 2.4606 1.2972 2.6307, 0.3899 1.2972 2.4886, 0.4076 1.2972 2.4778, 2.4606 1.2972 2.4778, 0.4107 1.2972 2.4759, 2.4606 1.2972 2.3379, 0.5826 1.2972 2.3379, 0.5792 1.2972 2.3569, 0.5671 1.2972 2.3842, 0.5488 1.2972 2.4076, 0.4915 1.2972 2.4404, 0.4616 1.2972 2.444, 0.4285 1.2972 2.4607, 0.4528 1.2972 2.4436, 0.4441 1.2972 2.4425, 0.5437 1.2972 2.4125, 0.5196 1.2972 2.4294, 0.5015 1.2972 2.2048, 0.5289 1.2972 2.2181, 2.4606 1.2972 2.1999, 0.5526 1.2972 2.2383, 0.57 1.2972 2.2631, 0.5809 1.2972 2.2914, 0.5845 1.2972 2.3211, 0.5843 1.2972 2.3284, 2.4606 1.2972 2.1576, 0.4512 1.2972 2.1576, 0.4582 1.2972 2.1605, 0.473 1.2972 2.1717, 0.4919 1.2972 2.2019, 0.491 1.2972 2.1999, 0.4843 1.2972 2.1856, 1.2402 1.2972 0.315, 0.0565 1.2972 2.1576, 0.3884 1.2972 2.1576, 0.2559 1.2972 0.315, 0.7283 1.2972 0.315, 0.7283 1.2972 0.0, 1.2402 1.2972 0.0, 0.4014 1.2972 2.1526, 0.4198 1.2972 2.1503, 0.4227 1.2972 2.1503, 2.4606 1.2972 0.0, 1.7126 1.2972 0.0, 1.7126 1.2972 0.315, 0.4406 1.2972 2.1531, 0.3487 1.2972 2.1999, 0.3488 1.2972 2.1996, 0.3577 1.2972 2.1826, 0.3694 1.2972 2.1696, 0.3845 1.2972 2.1591, 0.2518 1.2972 2.2446, 0.2466 1.2972 2.2467, 0.2376 1.2972 2.29, 0.3629 1.2972 2.2771, 0.2612 1.2972 2.3302, 0.3761 1.2972 2.2891, 0.3923 1.2972 2.2978, 0.2564 1.2972 2.2413, 0.1133 1.2972 2.2555, 0.1283 1.2972 2.2346, 0.0565 1.2972 2.1999, 0.1477 1.2972 2.3126, 0.1513 1.2972 2.3271, 0.1571 1.2972 2.3379, 0.5348 1.2972 2.3379, 0.1037 1.2972 2.3314, 0.1002 1.2972 2.3067, 0.1037 1.2972 2.2796, 0.2407 1.2972 2.2475, 0.2399 1.2972 2.2474, 0.2377 1.2972 2.2469, 0.5303 1.2972 2.2923, 0.5213 1.2972 2.2769, 0.4828 1.2972 2.2691, 0.5077 1.2972 2.263, 0.4912 1.2972 2.2528, 0.4547 1.2972 2.2942, 0.4702 1.2972 2.2834, 0.5367 1.2972 2.3226, 0.5358 1.2972 2.3109, 0.4379 1.2972 2.3006, 0.4198 1.2972 2.3029, 0.4106 1.2972 2.3023, 0.149 1.2972 2.2171, 0.1721 1.2972 2.2057, 0.1974 1.2972 2.2004, 0.2642 1.2972 2.2239, 0.264 1.2972 2.2269, 0.3439 1.2972 2.2338, 0.2625 1.2972 2.2327, 0.2596 1.2972 2.2379, 0.1627 1.2972 2.2658, 0.1544 1.2972 2.2776, 0.1491 1.2972 2.2911, 0.1473 1.2972 2.3059, 0.2422 1.2972 2.2004, 0.2465 1.2972 2.2011, 0.2515 1.2972 2.2031, 0.2564 1.2972 2.2066, 0.2582 1.2972 2.2084, 0.2615 1.2972 2.2131, 0.2635 1.2972 2.2183, 0.3443 1.2972 2.2183, 0.3439 1.2972 2.2262, 0.2361 1.2972 2.2467, 0.202 1.2972 2.2467, 0.1883 1.2972 2.2493, 0.1749 1.2972 2.2555, 0.1637 1.2972 2.2647, 0.229 1.2972 2.4107, 0.2461 1.2972 2.4312, 0.4206 1.2972 2.3871, 0.248 1.2972 2.4329, 0.2693 1.2972 2.4477, 0.409 1.2972 2.4111, 0.426 1.2972 2.3901, 0.443 1.2972 2.3963, 0.1583 1.2972 2.3402, 0.1671 1.2972 2.35, 0.2065 1.2972 2.3651, 0.1788 1.2972 2.3582, 0.1921 1.2972 2.3633, 0.2126 1.2972 2.3651, 0.2172 1.2972 2.3863, 0.4874 1.2972 2.3936, 0.5044 1.2972 2.3847, 0.4687 1.2972 2.3981, 0.5174 1.2972 2.373, 0.5279 1.2972 2.3579, 0.3919 1.2972 2.4315, 0.2931 1.2972 2.4568, 0.3716 1.2972 2.4463, 0.3189 1.2972 2.46, 0.3468 1.2972 2.4564, 0.4608 1.2972 2.3985, 0.5344 1.2972 2.341, -0.3378 1.2972 2.2952, -0.3403 1.2972 2.2129, -0.3503 1.2972 2.3379, -0.3503 1.2972 2.1999, -0.3403 1.2972 2.2008, -0.3166 1.2972 2.1999, -0.3166 1.2972 2.2611, -0.3348 1.2972 2.2611, -0.3348 1.2972 2.2488, -0.3166 1.2972 2.2129, -0.3166 1.2972 2.2488, -0.2966 1.2972 2.2488, -0.2966 1.2972 2.2129, -0.3166 1.2972 2.2952, -0.2966 1.2972 2.2952, -0.2966 1.2972 2.2611, -0.3166 1.2972 2.2008, -0.2828 1.2972 2.2008, -0.238 1.2972 2.1999, -0.2684 1.2972 2.277, -0.2301 1.2972 2.2197, -0.2318 1.2972 2.2134, -0.2321 1.2972 2.2134, -0.2167 1.2972 2.3379, -0.2828 1.2972 2.3075, -0.3166 1.2972 2.3379, -0.3166 1.2972 2.3075, -0.3378 1.2972 2.3075, -0.2327 1.2972 2.216, -0.2338 1.2972 2.2196, -0.2167 1.2972 2.2584, -0.2546 1.2972 2.277, -0.1232 1.2972 2.3379, -0.1232 1.2972 2.1999, -0.1368 1.2972 2.2172, -0.1368 1.2972 2.2034, -0.142 1.2972 2.214, -0.143 1.2972 2.2137, -0.143 1.2972 2.242, -0.1407 1.2972 2.2444, -0.1389 1.2972 2.2472, -0.1374 1.2972 2.2512, -0.1369 1.2972 2.2564, -0.1374 1.2972 2.2612, -0.1429 1.2972 2.2421, -0.143 1.2972 2.2012, -0.143 1.2972 2.1999, -0.1452 1.2972 2.2004, -0.1496 1.2972 2.1999, -0.1575 1.2972 2.199, -0.143 1.2972 2.1576, -0.1846 1.2972 2.2754, -0.1846 1.2972 2.2624, -0.1454 1.2972 2.2727, -0.1496 1.2972 2.2752, -0.143 1.2972 2.3379, -0.1877 1.2972 2.2161, -0.186 1.2972 2.2119, -0.1835 1.2972 2.2084, -0.139 1.2972 2.2655, -0.1415 1.2972 2.2691, -0.143 1.2972 2.2705, -0.157 1.2972 2.2778, -0.1666 1.2972 2.2788, -0.1918 1.2972 2.3379, -0.1757 1.2972 2.278, -0.1838 1.2972 2.2341, -0.1863 1.2972 2.2304, -0.1877 1.2972 2.2265, -0.1883 1.2972 2.2215, -0.1797 1.2972 2.205, -0.1753 1.2972 2.2024, -0.1653 1.2972 2.2679, -0.1613 1.2972 2.2676, -0.1507 1.2972 2.2576, -0.1577 1.2972 2.2667, -0.1547 1.2972 2.2651, -0.1508 1.2972 2.2559, -0.1513 1.2972 2.2538, -0.1523 1.2972 2.252, -0.1536 1.2972 2.2505, -0.1583 1.2972 2.2476, -0.174 1.2972 2.2669, -0.1666 1.2972 2.244, -0.1816 1.2972 2.2641, -0.1717 1.2972 2.2419, -0.1806 1.2972 2.237, -0.1527 1.2972 2.2633, -0.1516 1.2972 2.2616, -0.1509 1.2972 2.2598, -0.1503 1.2972 2.2109, -0.1571 1.2972 2.2343, -0.1492 1.2972 2.2379, -0.1588 1.2972 2.2099, -0.1594 1.2972 2.2099, -0.1659 1.2972 2.2306, -0.1662 1.2972 2.2106, -0.1746 1.2972 2.2202, -0.1744 1.2972 2.2219, -0.1697 1.2972 2.2119, -0.1709 1.2972 2.2127, -0.1724 1.2972 2.214, -0.1736 1.2972 2.2157, -0.1743 1.2972 2.2176, -0.1738 1.2972 2.2239, -0.1728 1.2972 2.2257, -0.1711 1.2972 2.2275, -0.3895 1.2972 2.3993, -0.3503 1.2972 2.3993, -0.4004 1.2972 2.3701, -0.4156 1.2972 2.3701, -0.4503 1.2972 2.3379, -0.375 1.2972 2.4769, -0.3196 1.2972 2.3701, -0.3348 1.2972 2.3701, -0.3451 1.2972 2.3993, -0.2041 1.2972 2.4646, -0.2167 1.2972 2.4778, -0.2041 1.2972 2.4769, -0.1918 1.2972 2.4778, -0.1918 1.2972 2.4769, -0.2011 1.2972 2.4304, -0.2011 1.2972 2.4182, -0.2066 1.2972 2.3823, -0.1918 1.2972 2.3823, -0.1918 1.2972 2.4182, -0.1629 1.2972 2.4182, -0.1629 1.2972 2.3823, -0.1918 1.2972 2.4646, -0.1918 1.2972 2.4304, -0.1629 1.2972 2.4646, -0.1629 1.2972 2.4304, -0.1492 1.2972 2.3701, -0.1918 1.2972 2.3701, -0.2066 1.2972 2.3701, -0.1492 1.2972 2.4769, -0.143 1.2972 2.4778, -0.4503 1.2972 0.315, -0.7283 1.2972 0.315, -1.505 1.2972 2.1576, -1.7126 1.2972 0.0, -2.4606 1.2972 0.0, -1.7126 1.2972 0.315, -2.4606 1.2972 2.1576, -1.505 1.2972 0.315, -1.2402 1.2972 0.315, -1.2402 1.2972 0.0, -0.7283 1.2972 0.0, -0.3166 1.2972 2.1576, -0.3503 1.2972 0.315, -0.3503 1.2972 2.1576, -0.4503 1.2972 2.1576, -0.2167 1.2972 0.0, -0.2559 1.2972 0.0, -0.2559 1.2972 0.315, -0.1232 1.2972 2.3727, -0.126 1.2972 2.3736, -0.1278 1.2972 2.3745, -0.1278 1.2972 2.3878, -0.1026 1.2972 2.4662, -0.0978 1.2972 2.466, -0.1232 1.2972 2.3857, -0.1158 1.2972 2.4647, -0.1278 1.2972 2.4599, -0.1266 1.2972 2.4606, -0.1232 1.2972 2.4618, -0.0886 1.2972 2.4641, -0.0803 1.2972 2.4601, -0.0735 1.2972 2.4544, -0.0728 1.2972 2.4536, -0.0676 1.2972 2.4462, -0.0641 1.2972 2.4369, -0.0623 1.2972 2.4223, -0.0625 1.2972 2.4177, -0.1173 1.2972 2.383, -0.1052 1.2972 2.3808, -0.1002 1.2972 2.3806, -0.0643 1.2972 2.4072, -0.0678 1.2972 2.3987, -0.0728 1.2972 2.3918, -0.0757 1.2972 2.3891, -0.0907 1.2972 2.3816, -0.0829 1.2972 2.3843, -0.1139 1.2972 2.4778, -0.1165 1.2972 2.4776, -0.1232 1.2972 2.4778, -0.1232 1.2972 2.4756, -0.1278 1.2972 2.4743, -0.0555 1.2972 2.4529, -0.0633 1.2972 2.463, -0.0659 1.2972 2.4655, -0.0759 1.2972 2.4725, -0.0462 1.2972 2.4778, -0.0505 1.2972 2.441, -0.0526 1.2972 2.4461, -0.0526 1.2972 2.3973, -0.0499 1.2972 2.4042, -0.0462 1.2972 2.3379, -0.0479 1.2972 2.4215, -0.048 1.2972 2.4271, -0.0526 1.2972 2.3379, -0.0787 1.2972 2.3715, -0.0688 1.2972 2.3766, -0.1145 1.2972 2.3699, -0.0982 1.2972 2.3683, -0.09 1.2972 2.3688, -0.0616 1.2972 2.3829, -0.0606 1.2972 2.3839, -0.0543 1.2972 2.393, -0.0629 1.2972 2.2372, -0.0649 1.2972 2.2587, -0.0602 1.2972 2.2334, -0.0583 1.2972 2.2287, -0.0526 1.2972 2.1999, -0.0597 1.2972 2.2106, -0.0581 1.2972 2.2151, -0.0992 1.2972 2.278, -0.1048 1.2972 2.2763, -0.067 1.2972 2.2408, -0.0728 1.2972 2.2437, -0.0729 1.2972 2.2639, -0.0827 1.2972 2.2461, -0.0944 1.2972 2.2674, -0.0899 1.2972 2.2679, -0.0813 1.2972 2.2669, -0.0685 1.2972 2.2018, -0.064 1.2972 2.205, -0.0625 1.2972 2.2065, -0.1093 1.2972 2.2738, -0.1128 1.2972 2.2703, -0.1156 1.2972 2.266, -0.1053 1.2972 2.2126, -0.1049 1.2972 2.2126, -0.1053 1.2972 2.2008, -0.1028 1.2972 2.2093, -0.0986 1.2972 2.2048, -0.0649 1.2972 2.2717, -0.0677 1.2972 2.2733, -0.0776 1.2972 2.2771, -0.0911 1.2972 2.2788, -0.0574 1.2972 2.2212, -0.0575 1.2972 2.223, -0.1053 1.2972 2.2492, -0.1048 1.2972 2.2551, -0.1034 1.2972 2.2599, -0.1019 1.2972 2.2627, -0.1177 1.2972 2.2599, -0.1187 1.2972 2.2498, -0.1187 1.2972 2.2008, -0.0999 1.2972 2.2648, -0.0975 1.2972 2.2663, -0.0889 1.2972 2.1999, -0.0885 1.2972 2.1997, -0.1232 1.2972 2.1576, -0.0816 1.2972 2.199, -0.0526 1.2972 2.1576, -0.0738 1.2972 2.1999, -0.0736 1.2972 2.1999, -0.2167 1.2972 2.1999, -0.2167 1.2972 2.2226, -0.1952 1.2972 2.277, -0.2102 1.2972 2.277, -0.2252 1.2972 2.2009, -0.2247 1.2972 2.1999, -0.2193 1.2972 2.1871, -0.1918 1.2972 2.1576, -0.198 1.2972 2.1659, -0.198 1.2972 2.1778, -0.2142 1.2972 2.1794, -0.2166 1.2972 2.1822, -0.2167 1.2972 2.1822, -0.2007 1.2972 2.1769, -0.2056 1.2972 2.1763, -0.2167 1.2972 2.1672, -0.212 1.2972 2.1655, -0.2167 1.2972 2.1576, -0.2066 1.2972 2.1648, -0.2037 1.2972 2.165, -0.2089 1.2972 2.1767, -0.2118 1.2972 2.1778, -0.2338 1.2972 2.1892, -0.2278 1.2972 2.1775, -0.2229 1.2972 2.1716, -0.222 1.2972 2.1707, -0.2173 1.2972 2.1675, -2.4606 1.2972 2.4778, -2.4606 1.2972 2.3379, -2.4606 1.2972 2.1999, -1.505 1.2972 2.1999, -0.4685 1.2972 2.2008, -0.4533 1.2972 2.2008, -0.4503 1.2972 2.1999, -0.5341 1.2972 2.2008, -0.5232 1.2972 2.23, -0.4788 1.2972 2.23, -0.4939 1.2972 2.3075, -0.5087 1.2972 2.3075, -0.5493 1.2972 2.2008, -0.3503 1.2972 2.4778, -0.3602 1.2972 2.4769, -0.3503 1.2972 2.4509, -0.4444 1.2972 2.2362, -0.4392 1.2972 2.2252, -0.4313 1.2972 2.2157, -0.4201 1.2972 2.2077, -0.4079 1.2972 2.203, -0.3898 1.2972 2.2008, -0.3604 1.2972 2.2008, -0.3604 1.2972 2.3075, -0.3909 1.2972 2.3075, -0.4072 1.2972 2.3057, -0.4201 1.2972 2.301, -0.4313 1.2972 2.2934, -0.435 1.2972 2.2897, -0.4416 1.2972 2.2804, -0.4456 1.2972 2.2702, -0.4474 1.2972 2.2555, -0.447 1.2972 2.2487, -0.2267 1.2972 2.3701, -0.3133 1.2972 2.4181, -0.3107 1.2972 2.4056, -0.3055 1.2972 2.3945, -0.2976 1.2972 2.3851, -0.308 1.2972 2.4497, -0.3119 1.2972 2.4395, -0.3166 1.2972 2.4778, -0.3137 1.2972 2.4249, -0.2864 1.2972 2.3771, -0.2742 1.2972 2.3723, -0.2561 1.2972 2.3701, -0.2267 1.2972 2.4769, -0.2572 1.2972 2.4769, -0.2735 1.2972 2.4751, -0.2864 1.2972 2.4704, -0.2976 1.2972 2.4627, -0.3013 1.2972 2.459, -0.1918 1.2972 0.0, -0.3166 1.2972 0.315, -0.1232 1.2972 0.0, -0.143 1.2972 0.0, -0.0939 1.2972 2.2017, -0.1232 1.2972 2.6307, -0.143 1.2972 2.6307, -0.1918 1.2972 2.6307, -0.2167 1.2972 2.6307, -0.3166 1.2972 2.6307, -0.3503 1.2972 2.6307, -0.4503 1.2972 2.6307, -1.505 1.2972 2.6307, -0.0462 1.2972 2.1576, -0.0462 1.2972 0.0, -0.0526 1.2972 0.0, -0.0462 1.2972 2.1999, 0.0565 1.2972 0.0, 0.2559 1.2972 0.0, -0.0422 1.2972 2.3075, -0.0422 1.2972 2.2952, -0.0446 1.2972 2.2129, -0.0446 1.2972 2.2008, 0.0128 1.2972 2.2008, 0.0128 1.2972 2.3075, -0.001 1.2972 2.2488, -0.001 1.2972 2.2129, -0.0391 1.2972 2.2488, -0.0391 1.2972 2.2611, -0.001 1.2972 2.2611, -0.001 1.2972 2.2952, -0.001 1.2972 2.4769, -0.001 1.2972 2.3823, -0.0435 1.2972 2.3823, 0.0128 1.2972 2.3701, 0.0128 1.2972 2.4769, -0.0435 1.2972 2.3701, -0.0462 1.2972 2.6307, -0.0526 1.2972 2.6307, -0.1025 1.2972 2.4787, -0.4503 1.2972 2.7559, -0.3503 1.2972 2.7559, -0.3166 1.2972 2.7559, -0.2167 1.2972 2.7559, -0.1918 1.2972 2.7559, -0.143 1.2972 2.7559, -0.1232 1.2972 2.7559, -0.0526 1.2972 2.7559, -0.0462 1.2972 2.7559, 0.0565 1.2972 2.7559, 2.4606 1.2972 2.7559, -2.4606 -1.0256 2.7559, -1.8701 -1.0256 2.7559, -2.4606 -0.7106 2.7559, -1.8701 -0.7106 2.7559, 1.8701 -0.7106 2.7559, 1.8701 -1.0256 2.7559, 2.4606 -0.7106 2.7559, 2.4606 -1.0256 2.7559, -1.2402 -0.4699 0.1969, -1.3504 -0.128 0.1969, -1.3504 0.124 0.1969, -1.6024 -0.128 0.1969, -1.7126 -0.4699 0.1969, -1.6024 0.124 0.1969, -1.7126 0.7416 0.1969, -1.2402 0.7416 0.1969, -0.2559 -0.4699 0.1969, -0.3661 -0.128 0.1969, -0.3661 0.124 0.1969, -0.6181 -0.128 0.1969, -0.7283 -0.4699 0.1969, -0.6181 0.124 0.1969, -0.7283 0.7416 0.1969, -0.2559 0.7416 0.1969, 0.7283 -0.4699 0.1969, 0.6181 -0.128 0.1969, 0.6181 0.124 0.1969, 0.3661 -0.128 0.1969, 0.2559 -0.4699 0.1969, 0.3661 0.124 0.1969, 0.2559 0.7416 0.1969, 0.7283 0.7416 0.1969, 1.7126 -0.4699 0.1969, 1.6024 -0.128 0.1969, 1.6024 0.124 0.1969, 1.3504 -0.128 0.1969, 1.2402 -0.4699 0.1969, 1.3504 0.124 0.1969, 1.2402 0.7416 0.1969, 1.7126 0.7416 0.1969
            ]
        }
        coordIndex [
            0,1,2,-1,3,4,5,-1,6,7,8,-1,9,10,11,-1,12,13,14,-1,14,13,15,-1,14,15,16,-1,17,18,19,-1,19,18,14,-1,19,14,20,-1,20,14,21,-1,16,22,14,-1,14,22,23,-1,14,23,21,-1,24,25,26,-1,26,25,12,-1,24,26,27,-1,27,26,28,-1,27,28,29,-1,29,28,30,-1,30,28,31,-1,30,31,32,-1,31,33,34,-1,34,35,31,-1,31,35,36,-1,31,36,37,-1,31,38,32,-1,32,38,39,-1,32,39,40,-1,40,39,41,-1,40,41,42,-1,37,43,31,-1,31,43,44,-1,31,44,38,-1,45,46,47,-1,47,46,48,-1,47,48,49,-1,49,50,47,-1,47,50,51,-1,47,51,33,-1,33,51,52,-1,33,52,34,-1,53,54,47,-1,47,54,55,-1,47,55,56,-1,57,45,58,-1,58,45,47,-1,58,47,59,-1,59,47,56,-1,60,61,62,-1,63,61,64,-1,64,61,60,-1,64,60,65,-1,65,60,66,-1,62,67,60,-1,60,67,68,-1,60,68,69,-1,70,71,53,-1,53,71,72,-1,53,72,54,-1,54,72,60,-1,54,60,73,-1,73,60,69,-1,74,75,61,-1,61,75,76,-1,76,77,61,-1,61,77,78,-1,61,78,62,-1,79,80,81,-1,82,83,84,-1,84,83,85,-1,79,81,86,-1,87,88,89,-1,90,91,83,-1,83,91,92,-1,83,92,93,-1,17,94,18,-1,18,94,95,-1,18,95,89,-1,89,95,96,-1,89,96,87,-1,80,97,81,-1,81,97,98,-1,81,98,99,-1,100,101,102,-1,102,101,103,-1,102,103,104,-1,105,93,106,-1,106,93,107,-1,106,107,102,-1,102,107,108,-1,102,108,100,-1,105,109,93,-1,93,109,110,-1,93,110,83,-1,83,110,111,-1,83,111,85,-1,88,112,89,-1,89,112,113,-1,89,113,114,-1,115,116,117,-1,117,116,118,-1,117,118,81,-1,81,118,119,-1,81,119,86,-1,120,121,81,-1,81,121,122,-1,81,122,83,-1,83,122,123,-1,83,123,90,-1,124,125,74,-1,125,126,74,-1,74,126,127,-1,74,127,128,-1,128,129,74,-1,74,129,130,-1,74,130,131,-1,131,130,115,-1,131,115,132,-1,132,115,117,-1,99,133,81,-1,81,133,134,-1,81,134,135,-1,135,136,81,-1,81,136,137,-1,81,137,120,-1,138,139,140,-1,139,141,140,-1,140,141,142,-1,140,142,143,-1,92,140,93,-1,93,140,144,-1,93,144,145,-1,146,147,148,-1,148,147,149,-1,148,149,150,-1,146,148,92,-1,92,148,151,-1,92,151,140,-1,140,151,152,-1,140,152,138,-1,153,154,155,-1,155,154,156,-1,155,156,157,-1,143,142,158,-1,158,142,159,-1,158,159,160,-1,160,159,161,-1,160,161,162,-1,145,163,93,-1,93,163,155,-1,93,155,164,-1,164,155,157,-1,165,166,167,-1,167,166,168,-1,168,166,169,-1,168,169,170,-1,171,172,165,-1,165,172,166,-1,166,172,173,-1,166,173,174,-1,173,175,174,-1,174,175,176,-1,174,176,177,-1,165,178,171,-1,171,178,179,-1,171,179,180,-1,169,181,170,-1,170,181,182,-1,170,182,183,-1,183,182,184,-1,185,186,187,-1,188,189,190,-1,190,189,191,-1,190,191,167,-1,167,191,192,-1,167,192,165,-1,187,193,185,-1,185,193,194,-1,185,194,195,-1,195,194,196,-1,195,196,188,-1,188,196,184,-1,188,184,189,-1,189,184,182,-1,197,198,199,-1,199,198,200,-1,201,202,203,-1,204,205,199,-1,205,206,199,-1,199,206,207,-1,199,207,197,-1,197,207,208,-1,201,203,199,-1,199,203,209,-1,199,209,204,-1,210,211,212,-1,212,211,213,-1,214,213,215,-1,215,213,211,-1,215,211,198,-1,198,211,210,-1,198,210,200,-1,216,217,11,-1,218,219,220,-1,221,222,11,-1,11,222,223,-1,208,224,197,-1,197,224,225,-1,197,225,220,-1,220,225,226,-1,220,226,218,-1,219,227,220,-1,220,227,228,-1,220,228,229,-1,229,228,230,-1,229,230,216,-1,231,232,217,-1,217,232,233,-1,217,233,11,-1,11,233,234,-1,11,234,221,-1,223,235,11,-1,11,235,236,-1,11,236,9,-1,237,238,239,-1,239,238,240,-1,239,240,241,-1,239,242,237,-1,237,242,243,-1,237,243,244,-1,244,245,237,-1,237,245,246,-1,237,246,247,-1,247,246,248,-1,247,248,249,-1,249,248,250,-1,249,250,217,-1,217,250,251,-1,217,251,231,-1,252,253,241,-1,241,253,254,-1,241,254,239,-1,255,256,202,-1,202,256,257,-1,202,257,203,-1,255,258,256,-1,256,258,259,-1,256,259,260,-1,260,259,261,-1,260,262,263,-1,261,264,260,-1,260,264,265,-1,260,265,266,-1,266,267,260,-1,260,267,268,-1,260,268,262,-1,263,269,260,-1,260,269,270,-1,260,270,271,-1,272,273,274,-1,274,273,167,-1,274,167,275,-1,275,167,276,-1,275,276,277,-1,278,190,279,-1,279,190,167,-1,279,167,280,-1,280,167,273,-1,281,282,283,-1,283,282,284,-1,283,284,285,-1,286,287,288,-1,288,287,289,-1,287,290,289,-1,289,290,291,-1,289,291,292,-1,281,293,294,-1,294,293,295,-1,294,295,296,-1,297,220,298,-1,298,220,229,-1,298,229,299,-1,299,229,188,-1,299,188,288,-1,285,284,300,-1,300,284,301,-1,300,301,297,-1,302,303,304,-1,305,306,307,-1,307,306,308,-1,307,308,309,-1,309,308,304,-1,309,304,310,-1,310,304,303,-1,310,303,311,-1,311,303,312,-1,313,314,315,-1,315,314,302,-1,315,302,316,-1,316,302,304,-1,317,318,319,-1,320,197,321,-1,321,197,220,-1,321,220,322,-1,322,220,323,-1,324,325,326,-1,324,326,327,-1,297,301,220,-1,220,301,328,-1,220,328,323,-1,323,328,329,-1,323,329,326,-1,326,329,330,-1,326,330,327,-1,325,331,326,-1,326,331,332,-1,326,332,333,-1,333,334,326,-1,326,334,335,-1,326,335,336,-1,336,337,326,-1,326,337,338,-1,326,338,339,-1,339,338,340,-1,340,338,341,-1,341,338,342,-1,341,342,343,-1,343,344,341,-1,341,344,345,-1,341,345,346,-1,346,345,347,-1,348,349,350,-1,350,349,351,-1,350,351,301,-1,301,351,352,-1,301,352,328,-1,8,353,354,-1,354,355,8,-1,8,355,356,-1,8,356,6,-1,357,358,8,-1,8,358,359,-1,8,359,353,-1,360,361,362,-1,362,361,363,-1,362,363,357,-1,357,363,364,-1,357,364,358,-1,365,366,367,-1,320,368,197,-1,197,368,369,-1,197,369,365,-1,365,369,370,-1,365,370,366,-1,367,371,365,-1,365,371,372,-1,365,372,373,-1,374,375,376,-1,376,375,377,-1,378,379,380,-1,381,382,197,-1,374,383,375,-1,375,383,384,-1,375,384,385,-1,385,384,386,-1,387,388,386,-1,386,388,389,-1,386,389,385,-1,390,391,378,-1,378,391,392,-1,378,392,379,-1,382,393,197,-1,197,393,394,-1,197,394,395,-1,396,397,398,-1,398,397,399,-1,398,399,400,-1,401,402,365,-1,365,402,403,-1,365,403,197,-1,197,403,404,-1,197,404,381,-1,380,405,378,-1,378,405,406,-1,378,406,365,-1,365,406,377,-1,365,377,401,-1,401,377,375,-1,407,408,386,-1,386,408,409,-1,386,409,410,-1,395,411,197,-1,197,411,412,-1,197,412,198,-1,198,412,413,-1,198,413,398,-1,410,414,386,-1,386,414,415,-1,386,415,387,-1,416,417,418,-1,417,419,420,-1,420,419,421,-1,420,421,378,-1,378,421,422,-1,378,422,390,-1,423,424,11,-1,11,424,425,-1,216,11,229,-1,229,11,425,-1,229,425,188,-1,188,425,426,-1,188,426,195,-1,427,424,428,-1,428,424,423,-1,428,423,429,-1,430,431,432,-1,433,434,423,-1,423,434,435,-1,423,435,429,-1,214,215,10,-1,10,215,430,-1,10,430,11,-1,11,430,432,-1,11,432,423,-1,423,432,436,-1,423,436,437,-1,438,439,440,-1,440,439,441,-1,440,441,430,-1,430,441,442,-1,430,442,431,-1,437,443,423,-1,423,443,444,-1,423,444,433,-1,445,446,313,-1,445,313,183,-1,446,447,313,-1,313,447,448,-1,313,448,440,-1,440,448,449,-1,440,449,438,-1,450,1,451,-1,451,1,0,-1,451,0,452,-1,452,0,453,-1,454,455,456,-1,457,458,459,-1,456,455,276,-1,276,455,460,-1,276,460,461,-1,459,454,457,-1,457,454,456,-1,457,456,462,-1,462,456,453,-1,462,453,461,-1,461,453,0,-1,461,0,276,-1,276,0,2,-1,276,2,277,-1,277,2,463,-1,277,463,464,-1,464,463,465,-1,466,467,456,-1,456,467,468,-1,456,468,469,-1,469,470,456,-1,456,470,471,-1,456,471,168,-1,168,471,472,-1,168,472,167,-1,472,473,167,-1,167,473,474,-1,167,474,276,-1,276,474,475,-1,276,475,476,-1,476,477,276,-1,276,477,478,-1,276,478,479,-1,479,480,276,-1,276,480,481,-1,276,481,456,-1,456,481,482,-1,456,482,466,-1,183,313,170,-1,170,313,315,-1,170,315,168,-1,168,315,316,-1,168,316,456,-1,456,316,304,-1,456,304,453,-1,453,304,308,-1,453,308,452,-1,294,286,281,-1,281,286,288,-1,281,288,282,-1,282,288,188,-1,282,188,483,-1,484,485,190,-1,190,485,486,-1,190,486,487,-1,488,489,490,-1,490,489,491,-1,487,492,190,-1,190,492,493,-1,190,493,188,-1,188,493,494,-1,188,494,483,-1,483,495,282,-1,282,495,496,-1,282,496,490,-1,490,496,497,-1,490,497,498,-1,498,499,490,-1,490,499,500,-1,490,500,488,-1,465,463,278,-1,278,463,490,-1,278,490,190,-1,190,490,491,-1,190,491,484,-1,215,501,430,-1,430,501,317,-1,430,317,440,-1,440,317,319,-1,440,319,313,-1,313,319,502,-1,313,502,314,-1,417,420,418,-1,418,420,503,-1,418,503,504,-1,400,505,398,-1,398,505,416,-1,398,416,198,-1,198,416,418,-1,198,418,215,-1,215,418,504,-1,215,504,501,-1,348,350,506,-1,506,350,301,-1,506,301,507,-1,507,301,284,-1,507,284,508,-1,508,284,282,-1,508,282,509,-1,509,282,490,-1,509,490,510,-1,510,490,463,-1,510,463,511,-1,511,463,2,-1,511,2,512,-1,512,2,1,-1,512,1,513,-1,513,1,450,-1,513,450,3,-1,514,515,516,-1,373,360,365,-1,365,360,362,-1,365,362,378,-1,378,362,517,-1,378,517,420,-1,515,61,518,-1,518,61,63,-1,518,63,519,-1,515,514,61,-1,61,514,89,-1,61,89,74,-1,74,89,114,-1,74,114,124,-1,520,521,362,-1,362,521,522,-1,362,522,517,-1,517,522,523,-1,517,523,524,-1,520,362,525,-1,525,362,18,-1,525,18,524,-1,524,18,89,-1,524,89,517,-1,517,89,514,-1,517,514,420,-1,420,514,516,-1,420,516,503,-1,526,527,528,-1,528,527,522,-1,528,522,529,-1,529,522,521,-1,529,521,530,-1,530,521,531,-1,532,533,534,-1,535,536,14,-1,14,536,532,-1,14,532,357,-1,357,532,534,-1,357,534,362,-1,362,534,537,-1,362,537,18,-1,18,537,535,-1,18,535,14,-1,12,14,26,-1,26,14,357,-1,26,357,538,-1,538,357,8,-1,538,8,539,-1,539,8,7,-1,539,7,506,-1,506,7,540,-1,506,540,348,-1,3,5,513,-1,513,5,541,-1,513,541,512,-1,512,541,542,-1,512,542,511,-1,511,542,543,-1,511,543,510,-1,510,543,544,-1,510,544,509,-1,509,544,545,-1,509,545,508,-1,508,545,546,-1,508,546,507,-1,507,546,547,-1,507,547,506,-1,506,547,548,-1,506,548,539,-1,539,548,549,-1,539,549,538,-1,538,549,550,-1,538,550,26,-1,26,550,551,-1,26,551,28,-1,552,553,554,-1,554,553,555,-1,556,557,558,-1,558,557,559,-1,560,561,562,-1,561,560,563,-1,563,560,564,-1,563,564,565,-1,565,564,566,-1,565,566,562,-1,562,566,567,-1,562,567,560,-1,568,569,570,-1,569,568,571,-1,571,568,572,-1,571,572,573,-1,573,572,574,-1,573,574,570,-1,570,574,575,-1,570,575,568,-1,576,577,578,-1,577,576,579,-1,579,576,580,-1,579,580,581,-1,581,580,582,-1,581,582,578,-1,578,582,583,-1,578,583,576,-1,584,585,586,-1,585,584,587,-1,587,584,588,-1,587,588,589,-1,589,588,590,-1,589,590,586,-1,586,590,591,-1,586,591,584,-1,
        ]
    }
}
Shape{
    appearance Appearance {
        material  Material {
            diffuseColor 0.7529411764705882 0.7529411764705882 0.7529411764705882
            specularColor 0.3764705882352941 0.3764705882352941 0.3764705882352941
            ambientIntensity 0.7529
            transparency 0.0
            shininess 0.5
        }
    }
    geometry IndexedFaceSet {
        ccw TRUE
        solid FALSE
        coord DEF co Coordinate {
            point [
                -1.3583 -0.1201 2.3622, -1.4299 -0.0484 2.5591, -1.5945 -0.1201 2.3622, -1.5228 -0.0484 2.5591, -1.4299 0.0445 2.5591, -1.3583 0.1161 2.3622, -1.5945 0.1161 2.3622, -1.5228 0.0445 2.5591, -1.5945 -0.1201 0.7874, -1.3583 -0.1201 0.7874, -1.5945 0.1161 0.7874, -1.3583 0.1161 0.7874, -0.374 -0.1201 2.3622, -0.4457 -0.0484 2.5591, -0.6102 -0.1201 2.3622, -0.5386 -0.0484 2.5591, -0.4457 0.0445 2.5591, -0.374 0.1161 2.3622, -0.6102 0.1161 2.3622, -0.5386 0.0445 2.5591, -0.6102 -0.1201 0.7874, -0.374 -0.1201 0.7874, -0.6102 0.1161 0.7874, -0.374 0.1161 0.7874
            ]
        }
        coordIndex [
            0,1,2,-1,2,1,3,-1,1,0,4,-1,4,0,5,-1,6,7,5,-1,5,7,4,-1,2,3,6,-1,6,3,7,-1,1,4,3,-1,3,4,7,-1,2,8,0,-1,0,8,9,-1,6,10,2,-1,2,10,8,-1,5,11,6,-1,6,11,10,-1,0,9,5,-1,5,9,11,-1,12,13,14,-1,14,13,15,-1,13,12,16,-1,16,12,17,-1,18,19,17,-1,17,19,16,-1,14,15,18,-1,18,15,19,-1,13,16,15,-1,15,16,19,-1,14,20,12,-1,12,20,21,-1,18,22,14,-1,14,22,20,-1,17,23,18,-1,18,23,22,-1,12,21,17,-1,17,21,23,-1,
        ]
    }
}
Shape{
    appearance Appearance {
        material  Material {
            diffuseColor 1.0 1.0 1.0
            specularColor 0.5019607843137255 0.5019607843137255 0.5019607843137255
            ambientIntensity 1.0
            transparency 0.0
            shininess 0.5
        }
    }
    geometry IndexedFaceSet {
        ccw TRUE
        solid FALSE
        coord DEF co Coordinate {
            point [
                2.1457 -0.7106 0.7874, -1.3583 -0.1201 0.7874, -2.1457 -0.7106 0.7874, -1.5945 -0.1201 0.7874, -2.1457 0.9823 0.7874, -0.6102 0.1161 0.7874, -0.374 0.1161 0.7874, 1.3583 0.1161 0.7874, 2.1457 0.9823 0.7874, 1.5945 0.1161 0.7874, 0.6102 -0.1201 0.7874, 0.374 -0.1201 0.7874, -0.6102 -0.1201 0.7874, -1.3583 0.1161 0.7874, -1.5945 0.1161 0.7874, 0.6102 0.1161 0.7874, 1.3583 -0.1201 0.7874, 1.5945 -0.1201 0.7874, -0.374 -0.1201 0.7874, 0.374 0.1161 0.7874, -1.2402 0.7416 0.1969, -1.2402 1.2972 0.315, -1.2402 1.2972 0.0, -1.2402 -0.4699 0.1969, -1.2402 -1.0256 0.0, -1.2402 -1.0256 0.315, -1.7126 -0.4699 0.1969, -1.7126 -1.0256 0.315, -1.7126 -1.0256 0.0, -1.7126 0.7416 0.1969, -1.7126 1.2972 0.0, -1.7126 1.2972 0.315, -0.2559 0.7416 0.1969, -0.2559 1.2972 0.315, -0.2559 1.2972 0.0, -0.2559 -0.4699 0.1969, -0.2559 -1.0256 0.0, -0.2559 -1.0256 0.315, -0.7283 -0.4699 0.1969, -0.7283 -1.0256 0.315, -0.7283 -1.0256 0.0, -0.7283 0.7416 0.1969, -0.7283 1.2972 0.0, -0.7283 1.2972 0.315, 0.7283 0.7416 0.1969, 0.7283 1.2972 0.315, 0.7283 1.2972 0.0, 0.7283 -0.4699 0.1969, 0.7283 -1.0256 0.0, 0.7283 -1.0256 0.315, 0.2559 -0.4699 0.1969, 0.2559 -1.0256 0.315, 0.2559 -1.0256 0.0, 0.2559 0.7416 0.1969, 0.2559 1.2972 0.0, 0.2559 1.2972 0.315, 1.2402 1.2972 0.0, 1.2402 -1.0256 0.0, 0.0565 1.2972 0.0, -0.2167 1.2972 0.0, -0.1918 1.2972 0.0, -0.143 1.2972 0.0, -0.1232 1.2972 0.0, -0.0526 1.2972 0.0, -0.0462 1.2972 0.0, 1.7126 0.7416 0.1969, 1.7126 1.2972 0.315, 1.7126 1.2972 0.0, 1.7126 -0.4699 0.1969, 1.7126 -1.0256 0.0, 1.7126 -1.0256 0.315, 1.2402 -0.4699 0.1969, 1.2402 -1.0256 0.315, 1.2402 0.7416 0.1969, 1.2402 1.2972 0.315, 2.4606 1.2972 0.0, 2.4606 -1.0256 0.0, 2.2638 -0.3169 2.7559, 2.4606 -0.3169 2.7559, 2.2638 1.1004 2.7559, 2.4606 1.2972 2.7559, 0.0565 1.2972 2.7559, -0.0462 1.2972 2.7559, -2.2638 1.1004 2.7559, -0.0526 1.2972 2.7559, -0.1232 1.2972 2.7559, -0.143 1.2972 2.7559, -0.1918 1.2972 2.7559, -0.2167 1.2972 2.7559, -0.3166 1.2972 2.7559, -0.3503 1.2972 2.7559, -0.4503 1.2972 2.7559, -2.4606 -0.3169 2.7559, -2.2638 -0.3169 2.7559, -2.4606 1.2972 2.7559, -1.505 1.2972 2.7559, 2.4606 -0.3169 1.5748, 2.4606 1.2972 2.1576, 2.4606 1.2972 2.1999, 2.4606 1.2972 2.3379, 2.4606 -0.6843 1.6732, 2.4606 -0.7039 1.7207, 2.4606 -0.7106 1.7717, 2.4606 -1.0256 2.7559, 2.4606 -0.7106 2.7559, 2.4606 -0.5647 1.5815, 2.4606 -0.6122 1.6012, 2.4606 -0.653 1.6325, 2.4606 1.2972 2.4778, 2.4606 1.2972 2.6307, 2.4606 -0.5138 1.5748, -2.4606 -0.7039 1.7207, -2.4606 -1.0256 0.0, -2.4606 -0.7106 1.7717, -2.4606 -1.0256 2.7559, -2.4606 -0.7106 2.7559, -2.4606 1.2972 2.6307, -2.4606 1.2972 2.4778, -2.4606 1.2972 2.3379, -2.4606 -0.6843 1.6732, -2.4606 -0.653 1.6325, -2.4606 -0.6122 1.6012, -2.4606 -0.5647 1.5815, -2.4606 -0.5138 1.5748, -2.4606 1.2972 0.0, -2.4606 -0.3169 1.5748, -2.4606 1.2972 2.1576, -2.4606 1.2972 2.1999, 1.8701 -1.0256 2.7559, 1.8701 -1.0256 2.5984, 1.8124 -1.0256 1.6325, 1.7717 -1.0256 1.6012, 1.3976 -1.0256 2.7559, -1.3976 -1.0256 2.7559, -1.3976 -1.0256 1.5748, 1.3976 -1.0256 1.5748, 1.752 -1.0256 2.4803, 1.8701 -1.0256 2.3622, 1.8701 -1.0256 1.7717, 1.6732 -1.0256 1.5748, 1.7242 -1.0256 1.5815, -1.8701 -1.0256 2.3622, -1.752 -1.0256 2.4803, -1.8701 -1.0256 2.5984, -1.8701 -1.0256 2.7559, 1.8634 -1.0256 1.7207, -1.8437 -1.0256 1.6732, -1.8634 -1.0256 1.7207, -1.8701 -1.0256 1.7717, 1.8437 -1.0256 1.6732, -1.7242 -1.0256 1.5815, -1.7717 -1.0256 1.6012, -1.8124 -1.0256 1.6325, -1.6732 -1.0256 1.5748, 1.3976 -0.7106 2.7559, -1.3976 -0.7106 2.7559, -2.1457 -0.7106 1.7717, -1.8701 -0.7106 2.3622, 1.8701 -0.7106 2.5984, 1.8701 -0.7106 2.7559, 1.8701 -0.7106 2.3622, 1.752 -0.7106 2.4803, -1.8701 -0.7106 2.7559, -1.8701 -0.7106 2.5984, -1.752 -0.7106 2.4803, -1.8437 -0.7106 1.6732, -1.8634 -0.7106 1.7207, -1.8701 -0.7106 1.7717, 1.8124 -0.7106 1.6325, 2.1457 -0.7106 1.7717, 1.7717 -0.7106 1.6012, 1.7242 -0.7106 1.5815, -1.8124 -0.7106 1.6325, -1.7717 -0.7106 1.6012, -1.7242 -0.7106 1.5815, -1.6732 -0.7106 1.5748, -1.3976 -0.7106 1.5748, 1.3976 -0.7106 1.5748, 1.6732 -0.7106 1.5748, 1.8437 -0.7106 1.6732, 1.8634 -0.7106 1.7207, 1.8701 -0.7106 1.7717, -2.1457 -0.653 1.6325, -2.1457 -0.6122 1.6012, -2.1457 -0.5647 1.5815, -2.1457 -0.6843 1.6732, -2.1457 -0.7039 1.7207, -2.1457 0.9823 2.6378, -2.1457 -0.3169 2.6378, -2.1457 -0.3169 1.5748, -2.1457 -0.5138 1.5748, 2.1457 0.9823 2.6378, 2.1457 -0.7039 1.7207, 2.1457 -0.6843 1.6732, 2.1457 -0.653 1.6325, 2.1457 -0.6122 1.6012, 2.1457 -0.3169 2.6378, 2.1457 -0.3169 1.5748, 2.1457 -0.5138 1.5748, 2.1457 -0.5647 1.5815, -0.4503 1.2972 0.315, -0.3503 1.2972 0.315, -0.3166 1.2972 0.315, -1.505 1.2972 0.315
            ]
        }
        coordIndex [
            0,1,2,-1,2,1,3,-1,2,3,4,-1,5,6,4,-1,4,7,8,-1,8,7,9,-1,8,9,0,-1,0,10,11,-1,12,5,13,-1,13,5,4,-1,13,4,14,-1,14,4,3,-1,15,10,16,-1,16,10,0,-1,16,0,17,-1,17,0,9,-1,13,1,12,-1,12,1,0,-1,12,0,18,-1,18,0,11,-1,18,11,6,-1,6,11,19,-1,6,19,4,-1,4,19,15,-1,4,15,7,-1,7,15,16,-1,20,21,22,-1,20,22,23,-1,23,22,24,-1,23,24,25,-1,26,27,28,-1,26,28,29,-1,29,28,30,-1,29,30,31,-1,32,33,34,-1,32,34,35,-1,35,34,36,-1,35,36,37,-1,38,39,40,-1,38,40,41,-1,41,40,42,-1,41,42,43,-1,44,45,46,-1,44,46,47,-1,47,46,48,-1,47,48,49,-1,50,51,52,-1,50,52,53,-1,53,52,54,-1,53,54,55,-1,46,56,48,-1,48,56,57,-1,58,54,52,-1,34,59,36,-1,36,59,60,-1,36,60,61,-1,61,62,36,-1,36,62,63,-1,36,63,52,-1,52,63,64,-1,52,64,58,-1,40,24,42,-1,42,24,22,-1,65,66,67,-1,65,67,68,-1,68,67,69,-1,68,69,70,-1,71,72,57,-1,71,57,73,-1,73,57,56,-1,73,56,74,-1,67,75,69,-1,69,75,76,-1,77,78,79,-1,79,78,80,-1,80,81,79,-1,79,81,82,-1,79,82,83,-1,83,82,84,-1,83,84,85,-1,85,86,83,-1,83,86,87,-1,83,87,88,-1,88,89,83,-1,83,89,90,-1,83,90,91,-1,92,93,94,-1,94,93,83,-1,94,83,95,-1,95,83,91,-1,96,75,97,-1,96,97,78,-1,78,97,98,-1,78,98,99,-1,100,101,76,-1,76,101,102,-1,76,102,103,-1,103,102,104,-1,105,106,76,-1,76,106,107,-1,76,107,100,-1,99,108,78,-1,78,108,109,-1,78,109,80,-1,75,96,76,-1,76,96,110,-1,76,110,105,-1,111,112,113,-1,113,112,114,-1,113,114,115,-1,94,116,92,-1,92,116,117,-1,92,117,118,-1,111,119,112,-1,112,119,120,-1,112,120,121,-1,121,122,112,-1,112,122,123,-1,112,123,124,-1,124,123,125,-1,124,125,126,-1,126,125,92,-1,126,92,127,-1,127,92,118,-1,103,128,129,-1,49,130,131,-1,132,133,134,-1,114,112,27,-1,27,112,28,-1,132,134,135,-1,129,136,103,-1,103,136,137,-1,103,137,138,-1,135,51,139,-1,139,51,49,-1,139,49,140,-1,140,49,131,-1,141,142,114,-1,114,142,143,-1,114,143,144,-1,138,145,103,-1,103,145,70,-1,103,70,76,-1,76,70,69,-1,27,146,147,-1,27,147,114,-1,114,147,148,-1,114,148,141,-1,145,149,70,-1,70,149,130,-1,70,130,72,-1,72,130,49,-1,72,49,57,-1,57,49,48,-1,150,151,27,-1,27,151,152,-1,27,152,146,-1,25,134,27,-1,27,134,153,-1,27,153,150,-1,52,51,36,-1,36,51,135,-1,36,135,37,-1,37,135,134,-1,37,134,39,-1,39,134,25,-1,39,25,40,-1,40,25,24,-1,132,154,133,-1,133,154,155,-1,28,112,30,-1,30,112,124,-1,156,113,157,-1,158,159,104,-1,160,161,158,-1,115,162,113,-1,113,162,163,-1,113,163,157,-1,157,163,164,-1,165,2,166,-1,166,2,156,-1,166,156,167,-1,167,156,157,-1,168,169,170,-1,170,169,0,-1,170,0,171,-1,165,172,2,-1,2,172,173,-1,2,173,174,-1,174,175,2,-1,2,175,176,-1,2,176,0,-1,155,154,176,-1,176,154,177,-1,176,177,0,-1,0,177,178,-1,0,178,171,-1,168,179,169,-1,169,179,180,-1,169,180,181,-1,104,102,158,-1,158,102,169,-1,158,169,160,-1,160,169,181,-1,182,2,183,-1,183,2,184,-1,182,185,2,-1,2,185,186,-1,2,186,156,-1,187,188,4,-1,4,188,189,-1,4,189,2,-1,2,189,190,-1,2,190,184,-1,187,4,191,-1,191,4,8,-1,0,169,192,-1,192,193,0,-1,0,193,194,-1,0,194,195,-1,196,191,197,-1,197,191,8,-1,197,8,198,-1,198,8,0,-1,198,0,199,-1,199,0,195,-1,128,159,129,-1,129,159,158,-1,129,158,136,-1,136,158,161,-1,136,161,137,-1,137,161,160,-1,137,160,138,-1,138,160,181,-1,178,139,171,-1,171,139,140,-1,171,140,170,-1,170,140,131,-1,170,131,168,-1,168,131,130,-1,168,130,179,-1,179,130,149,-1,179,149,180,-1,180,149,145,-1,180,145,181,-1,181,145,138,-1,139,178,135,-1,135,178,177,-1,135,177,132,-1,132,177,154,-1,143,163,144,-1,144,163,162,-1,133,155,134,-1,134,155,176,-1,134,176,153,-1,153,176,175,-1,167,148,166,-1,166,148,147,-1,166,147,165,-1,165,147,146,-1,165,146,172,-1,172,146,152,-1,172,152,173,-1,173,152,151,-1,173,151,174,-1,174,151,150,-1,174,150,175,-1,175,150,153,-1,148,167,141,-1,141,167,157,-1,141,157,142,-1,142,157,164,-1,142,164,143,-1,143,164,163,-1,72,71,70,-1,70,71,68,-1,66,65,74,-1,74,65,73,-1,51,50,49,-1,49,50,47,-1,45,44,55,-1,55,44,53,-1,39,38,37,-1,37,38,35,-1,41,43,32,-1,32,43,200,-1,200,201,32,-1,32,201,202,-1,32,202,33,-1,27,26,25,-1,25,26,23,-1,21,20,203,-1,203,20,29,-1,203,29,31,-1,
        ]
    }
}
Shape{
    appearance Appearance {
        material  Material {
            diffuseColor 0.7529411764705882 0.7529411764705882 0.7529411764705882
            specularColor 0.3764705882352941 0.3764705882352941 0.3764705882352941
            ambientIntensity 0.7529
            transparency 0.0
            shininess 0.5
        }
    }
    geometry IndexedFaceSet {
        ccw TRUE
        solid FALSE
        coord DEF co Coordinate {
            point [
                1.5945 -0.1201 2.3622, 1.5945 -0.1201 0.7874, 1.5945 0.1161 2.3622, 1.5945 0.1161 0.7874, 1.3583 0.1161 2.3622, 1.3583 0.1161 0.7874, 1.3583 -0.1201 2.3622, 1.3583 -0.1201 0.7874, 1.5228 -0.0484 2.5591, 1.5228 0.0445 2.5591, 1.4299 -0.0484 2.5591, 1.4299 0.0445 2.5591, 0.6102 -0.1201 2.3622, 0.6102 -0.1201 0.7874, 0.6102 0.1161 2.3622, 0.6102 0.1161 0.7874, 0.374 0.1161 2.3622, 0.374 0.1161 0.7874, 0.374 -0.1201 2.3622, 0.374 -0.1201 0.7874, 0.5386 -0.0484 2.5591, 0.5386 0.0445 2.5591, 0.4457 -0.0484 2.5591, 0.4457 0.0445 2.5591, 1.6024 -0.128 -1.1417, 1.6024 -0.128 0.1969, 1.3504 -0.128 -1.1417, 1.3504 -0.128 0.1969, 1.422 -0.0563 -1.3386, 1.422 0.0524 -1.3386, 1.5307 -0.0563 -1.3386, 1.5307 0.0524 -1.3386, 1.3504 0.124 -1.1417, 1.3504 0.124 0.1969, 1.6024 0.124 -1.1417, 1.6024 0.124 0.1969, 0.6181 -0.128 -1.1417, 0.6181 -0.128 0.1969, 0.3661 -0.128 -1.1417, 0.3661 -0.128 0.1969, 0.4378 -0.0563 -1.3386, 0.4378 0.0524 -1.3386, 0.5465 -0.0563 -1.3386, 0.5465 0.0524 -1.3386, 0.3661 0.124 -1.1417, 0.3661 0.124 0.1969, 0.6181 0.124 -1.1417, 0.6181 0.124 0.1969, -0.3661 -0.128 -1.1417, -0.3661 -0.128 0.1969, -0.6181 -0.128 -1.1417, -0.6181 -0.128 0.1969, -0.5465 -0.0563 -1.3386, -0.5465 0.0524 -1.3386, -0.4378 -0.0563 -1.3386, -0.4378 0.0524 -1.3386, -0.6181 0.124 -1.1417, -0.6181 0.124 0.1969, -0.3661 0.124 -1.1417, -0.3661 0.124 0.1969, -1.3504 -0.128 -1.1417, -1.3504 -0.128 0.1969, -1.6024 -0.128 -1.1417, -1.6024 -0.128 0.1969, -1.5307 -0.0563 -1.3386, -1.5307 0.0524 -1.3386, -1.422 -0.0563 -1.3386, -1.422 0.0524 -1.3386, -1.6024 0.124 -1.1417, -1.6024 0.124 0.1969, -1.3504 0.124 -1.1417, -1.3504 0.124 0.1969
            ]
        }
        coordIndex [
            0,1,2,-1,2,1,3,-1,2,3,4,-1,4,3,5,-1,4,5,6,-1,6,5,7,-1,6,7,0,-1,0,7,1,-1,8,9,10,-1,10,9,11,-1,4,11,2,-1,2,11,9,-1,6,10,4,-1,4,10,11,-1,8,0,9,-1,9,0,2,-1,0,8,6,-1,6,8,10,-1,12,13,14,-1,14,13,15,-1,14,15,16,-1,16,15,17,-1,16,17,18,-1,18,17,19,-1,18,19,12,-1,12,19,13,-1,20,21,22,-1,22,21,23,-1,18,22,16,-1,16,22,23,-1,16,23,14,-1,14,23,21,-1,20,12,21,-1,21,12,14,-1,12,20,18,-1,18,20,22,-1,24,25,26,-1,26,25,27,-1,28,29,30,-1,30,29,31,-1,32,33,34,-1,34,33,35,-1,34,35,24,-1,24,35,25,-1,26,27,32,-1,32,27,33,-1,34,31,32,-1,32,31,29,-1,24,30,34,-1,34,30,31,-1,28,26,29,-1,29,26,32,-1,26,28,24,-1,24,28,30,-1,36,37,38,-1,38,37,39,-1,40,41,42,-1,42,41,43,-1,44,45,46,-1,46,45,47,-1,46,47,36,-1,36,47,37,-1,38,39,44,-1,44,39,45,-1,48,49,50,-1,50,49,51,-1,52,53,54,-1,54,53,55,-1,56,57,58,-1,58,57,59,-1,58,59,48,-1,48,59,49,-1,50,51,56,-1,56,51,57,-1,60,61,62,-1,62,61,63,-1,64,65,66,-1,66,65,67,-1,68,69,70,-1,70,69,71,-1,70,71,60,-1,60,71,61,-1,62,63,68,-1,68,63,69,-1,46,43,44,-1,44,43,41,-1,36,42,46,-1,46,42,43,-1,40,38,41,-1,41,38,44,-1,38,40,36,-1,36,40,42,-1,58,55,56,-1,56,55,53,-1,48,54,58,-1,58,54,55,-1,52,50,53,-1,53,50,56,-1,50,52,48,-1,48,52,54,-1,70,67,68,-1,68,67,65,-1,60,66,70,-1,70,66,67,-1,64,62,65,-1,65,62,68,-1,62,64,60,-1,60,64,66,-1,
        ]
    }
}
Shape{
    appearance Appearance {
        material  Material {
            diffuseColor 1.0 1.0 1.0
            specularColor 0.5019607843137255 0.5019607843137255 0.5019607843137255
            ambientIntensity 1.0
            transparency 0.0
            shininess 0.5
        }
    }
    geometry IndexedFaceSet {
        ccw TRUE
        solid FALSE
        coord DEF co Coordinate {
            point [
                2.1457 -0.3169 2.6378, 2.1457 -0.3169 1.5748, 2.2638 -0.3169 2.7559, 2.4606 -0.3169 1.5748, 2.4606 -0.3169 2.7559, 2.4606 -0.5138 1.5748, 2.1457 -0.5138 1.5748, -2.1457 -0.3169 1.5748, -2.1457 -0.3169 2.6378, -2.4606 -0.3169 1.5748, -2.2638 -0.3169 2.7559, -2.4606 -0.3169 2.7559, -2.1457 -0.5138 1.5748, -2.4606 -0.5138 1.5748, 2.1457 -0.7106 1.7717, 2.4606 -0.7106 1.7717, 2.1457 -0.7039 1.7207, 2.4606 -0.7039 1.7207, 2.1457 -0.6843 1.6732, 2.4606 -0.6843 1.6732, 2.1457 -0.653 1.6325, 2.4606 -0.653 1.6325, 2.1457 -0.6122 1.6012, 2.4606 -0.6122 1.6012, 2.1457 -0.5647 1.5815, 2.4606 -0.5647 1.5815, -2.4606 -0.7106 1.7717, -2.1457 -0.7106 1.7717, -2.4606 -0.7039 1.7207, -2.1457 -0.7039 1.7207, -2.4606 -0.6843 1.6732, -2.1457 -0.6843 1.6732, -2.4606 -0.653 1.6325, -2.1457 -0.653 1.6325, -2.4606 -0.6122 1.6012, -2.1457 -0.6122 1.6012, -2.4606 -0.5647 1.5815, -2.1457 -0.5647 1.5815
            ]
        }
        coordIndex [
            0,1,2,-1,2,1,3,-1,2,3,4,-1,5,3,6,-1,6,3,1,-1,7,8,9,-1,9,8,10,-1,9,10,11,-1,12,7,13,-1,13,7,9,-1,14,15,16,-1,16,15,17,-1,16,17,18,-1,18,17,19,-1,18,19,20,-1,20,19,21,-1,20,21,22,-1,22,21,23,-1,22,23,24,-1,24,23,25,-1,24,25,6,-1,6,25,5,-1,26,27,28,-1,28,27,29,-1,28,29,30,-1,30,29,31,-1,30,31,32,-1,32,31,33,-1,32,33,34,-1,34,33,35,-1,34,35,36,-1,36,35,37,-1,36,37,13,-1,13,37,12,-1,
        ]
    }
}
Shape{
    appearance Appearance {
        material  Material {
            diffuseColor 0.0 0.0 0.0
            specularColor 0.0 0.0 0.0
            ambientIntensity 0.0
            transparency 0.0
            shininess 0.5
        }
    }
    geometry IndexedFaceSet {
        ccw TRUE
        solid FALSE
        coord DEF co Coordinate {
            point [
                -0.0435 1.3012 2.3823, -0.0435 1.3012 2.3701, -0.0435 1.2972 2.3823, -0.0435 1.2972 2.3701, -0.001 1.3012 2.3823, -0.001 1.2972 2.3823, -0.001 1.3012 2.4769, -0.001 1.2972 2.4769, 0.0128 1.3012 2.4769, 0.0128 1.2972 2.4769, 0.0128 1.3012 2.3701, 0.0128 1.2972 2.3701, -0.0982 1.3012 2.3683, -0.0982 1.2972 2.3683, -0.1145 1.2972 2.3699, -0.1232 1.2972 2.3727, -0.126 1.3012 2.3736, -0.1145 1.3012 2.3699, -0.126 1.2972 2.3736, -0.1278 1.2972 2.3745, -0.1278 1.3012 2.3745, -0.1278 1.3012 2.3878, -0.1278 1.2972 2.3878, -0.1232 1.2972 2.3857, -0.1173 1.3012 2.383, -0.1173 1.2972 2.383, -0.1052 1.2972 2.3808, -0.1052 1.3012 2.3808, -0.1002 1.2972 2.3806, -0.1002 1.3012 2.3806, -0.0907 1.2972 2.3816, -0.0907 1.3012 2.3816, -0.0829 1.2972 2.3843, -0.0829 1.3012 2.3843, -0.0757 1.2972 2.3891, -0.0757 1.3012 2.3891, -0.0728 1.2972 2.3918, -0.0728 1.3012 2.3918, -0.0678 1.2972 2.3987, -0.0678 1.3012 2.3987, -0.0643 1.2972 2.4072, -0.0643 1.3012 2.4072, -0.0625 1.2972 2.4177, -0.0625 1.3012 2.4177, -0.0623 1.2972 2.4223, -0.0623 1.3012 2.4223, -0.0641 1.2972 2.4369, -0.0641 1.3012 2.4369, -0.0676 1.2972 2.4462, -0.0676 1.3012 2.4462, -0.0728 1.2972 2.4536, -0.0728 1.3012 2.4536, -0.0735 1.2972 2.4544, -0.0735 1.3012 2.4544, -0.0803 1.2972 2.4601, -0.0803 1.3012 2.4601, -0.0886 1.2972 2.4641, -0.0886 1.3012 2.4641, -0.0978 1.2972 2.466, -0.0978 1.3012 2.466, -0.1026 1.2972 2.4662, -0.1026 1.3012 2.4662, -0.1158 1.2972 2.4647, -0.1232 1.2972 2.4618, -0.1266 1.3012 2.4606, -0.1158 1.3012 2.4647, -0.1266 1.2972 2.4606, -0.1278 1.2972 2.4599, -0.1278 1.3012 2.4599, -0.1278 1.3012 2.4743, -0.1278 1.2972 2.4743, -0.1232 1.2972 2.4756, -0.1165 1.3012 2.4776, -0.1025 1.2972 2.4787, -0.1025 1.3012 2.4787, -0.1139 1.2972 2.4778, -0.1165 1.2972 2.4776, -0.0951 1.2972 2.4778, -0.0871 1.3012 2.4768, -0.0871 1.2972 2.4768, -0.0759 1.2972 2.4725, -0.0759 1.3012 2.4725, -0.0659 1.2972 2.4655, -0.0659 1.3012 2.4655, -0.0633 1.2972 2.463, -0.0633 1.3012 2.463, -0.0555 1.2972 2.4529, -0.0526 1.2972 2.4461, -0.0505 1.3012 2.441, -0.0555 1.3012 2.4529, -0.0505 1.2972 2.441, -0.048 1.2972 2.4271, -0.048 1.3012 2.4271, -0.0479 1.2972 2.4215, -0.0479 1.3012 2.4215, -0.0499 1.2972 2.4042, -0.0526 1.2972 2.3973, -0.0543 1.3012 2.393, -0.0499 1.3012 2.4042, -0.0543 1.2972 2.393, -0.0606 1.2972 2.3839, -0.0606 1.3012 2.3839, -0.0616 1.2972 2.3829, -0.0616 1.3012 2.3829, -0.0688 1.2972 2.3766, -0.0688 1.3012 2.3766, -0.0787 1.2972 2.3715, -0.0787 1.3012 2.3715, -0.09 1.2972 2.3688, -0.09 1.3012 2.3688, -0.2066 1.3012 2.3823, -0.2066 1.3012 2.3701, -0.2066 1.2972 2.3823, -0.2066 1.2972 2.3701, -0.1629 1.2972 2.3823, -0.1629 1.3012 2.3823, -0.1918 1.2972 2.3823, -0.1629 1.3012 2.4182, -0.1629 1.2972 2.4182, -0.2011 1.3012 2.4182, -0.1918 1.2972 2.4182, -0.2011 1.2972 2.4182, -0.2011 1.3012 2.4304, -0.2011 1.2972 2.4304, -0.1629 1.2972 2.4304, -0.1629 1.3012 2.4304, -0.1918 1.2972 2.4304, -0.1629 1.3012 2.4646, -0.1629 1.2972 2.4646, -0.2041 1.2972 2.4646, -0.2041 1.3012 2.4646, -0.1918 1.2972 2.4646, -0.2041 1.3012 2.4769, -0.2041 1.2972 2.4769, -0.1492 1.2972 2.4769, -0.1492 1.3012 2.4769, -0.1918 1.2972 2.4769, -0.1492 1.3012 2.3701, -0.1492 1.2972 2.3701, -0.1918 1.2972 2.3701, -0.2976 1.3012 2.3851, -0.2865 1.3012 2.3922, -0.2864 1.3012 2.3771, -0.2796 1.3012 2.3875, -0.2742 1.3012 2.3723, -0.2708 1.3012 2.384, -0.2561 1.3012 2.3701, -0.256 1.3012 2.3823, -0.2267 1.3012 2.3701, -0.2405 1.3012 2.3823, -0.2267 1.3012 2.4769, -0.2405 1.3012 2.4646, -0.2572 1.3012 2.4769, -0.2566 1.3012 2.4646, -0.2574 1.3012 2.4646, -0.2735 1.3012 2.4751, -0.2712 1.3012 2.4629, -0.2864 1.3012 2.4704, -0.2803 1.3012 2.4594, -0.2976 1.3012 2.4627, -0.2875 1.3012 2.4546, -0.3013 1.3012 2.459, -0.2905 1.3012 2.4516, -0.308 1.3012 2.4497, -0.2946 1.3012 2.4456, -0.3119 1.3012 2.4395, -0.2976 1.3012 2.4378, -0.3137 1.3012 2.4249, -0.2992 1.3012 2.4245, -0.3133 1.3012 2.4181, -0.2988 1.3012 2.4174, -0.3107 1.3012 2.4056, -0.2967 1.3012 2.4077, -0.3055 1.3012 2.3945, -0.2929 1.3012 2.3998, -0.2878 1.3012 2.3934, -0.2561 1.2972 2.3701, -0.2267 1.2972 2.3701, -0.2742 1.2972 2.3723, -0.2864 1.2972 2.3771, -0.2976 1.2972 2.3851, -0.3055 1.2972 2.3945, -0.3107 1.2972 2.4056, -0.3133 1.2972 2.4181, -0.3137 1.2972 2.4249, -0.3119 1.2972 2.4395, -0.308 1.2972 2.4497, -0.3013 1.2972 2.459, -0.2976 1.2972 2.4627, -0.2864 1.2972 2.4704, -0.2735 1.2972 2.4751, -0.2572 1.2972 2.4769, -0.2267 1.2972 2.4769, -0.2566 1.2972 2.4646, -0.2405 1.2972 2.4646, -0.2405 1.2972 2.3823, -0.256 1.2972 2.3823, -0.2878 1.2972 2.3934, -0.2865 1.2972 2.3922, -0.2796 1.2972 2.3875, -0.2708 1.2972 2.384, -0.2992 1.2972 2.4245, -0.2988 1.2972 2.4174, -0.2967 1.2972 2.4077, -0.2929 1.2972 2.3998, -0.2875 1.2972 2.4546, -0.2905 1.2972 2.4516, -0.2946 1.2972 2.4456, -0.2976 1.2972 2.4378, -0.2574 1.2972 2.4646, -0.2712 1.2972 2.4629, -0.2803 1.2972 2.4594
            ]
        }
        coordIndex [
            0,1,2,-1,2,1,3,-1,4,0,5,-1,5,0,2,-1,6,4,7,-1,7,4,5,-1,8,6,9,-1,9,6,7,-1,10,8,11,-1,11,8,9,-1,1,10,3,-1,3,10,11,-1,6,8,4,-1,4,8,10,-1,4,10,0,-1,0,10,1,-1,12,13,14,-1,15,16,14,-1,14,16,17,-1,14,17,12,-1,15,18,16,-1,16,18,19,-1,16,19,20,-1,21,20,22,-1,22,20,19,-1,21,22,23,-1,21,23,24,-1,23,25,24,-1,24,25,26,-1,24,26,27,-1,27,26,28,-1,27,28,29,-1,29,28,30,-1,29,30,31,-1,31,30,32,-1,31,32,33,-1,33,32,34,-1,33,34,35,-1,35,34,36,-1,35,36,37,-1,37,36,38,-1,37,38,39,-1,39,38,40,-1,39,40,41,-1,41,40,42,-1,41,42,43,-1,43,42,44,-1,43,44,45,-1,45,44,46,-1,45,46,47,-1,47,46,48,-1,47,48,49,-1,49,48,50,-1,49,50,51,-1,51,50,52,-1,51,52,53,-1,53,52,54,-1,53,54,55,-1,55,54,56,-1,55,56,57,-1,57,56,58,-1,57,58,59,-1,59,58,60,-1,59,60,61,-1,61,60,62,-1,63,64,62,-1,62,64,65,-1,62,65,61,-1,63,66,64,-1,64,66,67,-1,64,67,68,-1,69,68,70,-1,70,68,67,-1,69,70,71,-1,69,71,72,-1,73,74,75,-1,75,74,72,-1,75,72,76,-1,76,72,71,-1,74,73,77,-1,74,77,78,-1,77,79,78,-1,78,79,80,-1,78,80,81,-1,81,80,82,-1,81,82,83,-1,83,82,84,-1,83,84,85,-1,85,84,86,-1,87,88,86,-1,86,88,89,-1,86,89,85,-1,87,90,88,-1,88,90,91,-1,88,91,92,-1,92,91,93,-1,92,93,94,-1,94,93,95,-1,96,97,95,-1,95,97,98,-1,95,98,94,-1,96,99,97,-1,97,99,100,-1,97,100,101,-1,101,100,102,-1,101,102,103,-1,103,102,104,-1,103,104,105,-1,105,104,106,-1,105,106,107,-1,107,106,108,-1,107,108,109,-1,109,108,13,-1,109,13,12,-1,85,53,83,-1,83,53,55,-1,83,55,81,-1,94,45,92,-1,92,45,47,-1,92,47,88,-1,88,47,89,-1,89,47,49,-1,89,49,85,-1,85,49,51,-1,85,51,53,-1,81,55,78,-1,78,55,57,-1,78,57,74,-1,20,21,16,-1,16,21,24,-1,16,24,17,-1,17,24,27,-1,17,27,12,-1,12,27,29,-1,12,29,109,-1,109,29,31,-1,109,31,107,-1,107,31,33,-1,107,33,105,-1,105,33,35,-1,105,35,103,-1,103,35,37,-1,103,37,101,-1,101,37,39,-1,101,39,97,-1,97,39,98,-1,98,39,41,-1,98,41,94,-1,94,41,43,-1,94,43,45,-1,57,59,74,-1,74,59,61,-1,74,61,72,-1,72,61,65,-1,72,65,69,-1,69,65,64,-1,69,64,68,-1,110,111,112,-1,112,111,113,-1,114,115,116,-1,116,115,110,-1,116,110,112,-1,117,115,118,-1,118,115,114,-1,117,118,119,-1,119,118,120,-1,119,120,121,-1,122,119,123,-1,123,119,121,-1,124,125,126,-1,126,125,122,-1,126,122,123,-1,127,125,128,-1,128,125,124,-1,129,130,131,-1,131,130,127,-1,131,127,128,-1,132,130,133,-1,133,130,129,-1,134,135,136,-1,136,135,132,-1,136,132,133,-1,137,135,138,-1,138,135,134,-1,113,111,139,-1,139,111,137,-1,139,137,138,-1,130,132,127,-1,127,132,135,-1,127,135,125,-1,111,110,137,-1,137,110,115,-1,137,115,117,-1,119,122,117,-1,117,122,125,-1,117,125,137,-1,137,125,135,-1,140,141,142,-1,142,141,143,-1,142,143,144,-1,144,143,145,-1,144,145,146,-1,146,145,147,-1,146,147,148,-1,148,147,149,-1,148,149,150,-1,150,149,151,-1,150,151,152,-1,151,153,152,-1,152,153,154,-1,152,154,155,-1,155,154,156,-1,155,156,157,-1,157,156,158,-1,157,158,159,-1,159,158,160,-1,159,160,161,-1,161,160,162,-1,161,162,163,-1,163,162,164,-1,163,164,165,-1,165,164,166,-1,165,166,167,-1,167,166,168,-1,167,168,169,-1,169,168,170,-1,169,170,171,-1,171,170,172,-1,171,172,173,-1,173,172,174,-1,173,174,140,-1,140,174,175,-1,140,175,141,-1,146,148,176,-1,176,148,177,-1,146,176,178,-1,146,178,144,-1,144,178,179,-1,144,179,142,-1,142,179,180,-1,142,180,140,-1,140,180,181,-1,140,181,173,-1,173,181,182,-1,173,182,171,-1,171,182,183,-1,171,183,169,-1,169,183,184,-1,169,184,167,-1,167,184,185,-1,167,185,165,-1,165,185,186,-1,165,186,163,-1,163,186,187,-1,163,187,161,-1,161,187,188,-1,161,188,159,-1,159,188,189,-1,159,189,157,-1,157,189,190,-1,157,190,155,-1,155,190,191,-1,155,191,152,-1,150,152,192,-1,192,152,191,-1,148,150,177,-1,177,150,192,-1,153,151,193,-1,193,151,194,-1,151,149,194,-1,194,149,195,-1,149,147,195,-1,195,147,196,-1,175,197,198,-1,175,198,141,-1,141,198,199,-1,141,199,143,-1,143,199,200,-1,143,200,145,-1,145,200,196,-1,145,196,147,-1,168,201,202,-1,168,202,170,-1,170,202,203,-1,170,203,172,-1,172,203,204,-1,172,204,174,-1,174,204,197,-1,174,197,175,-1,160,205,206,-1,160,206,162,-1,162,206,207,-1,162,207,164,-1,164,207,208,-1,164,208,166,-1,166,208,201,-1,166,201,168,-1,153,193,209,-1,153,209,154,-1,154,209,210,-1,154,210,156,-1,156,210,211,-1,156,211,158,-1,158,211,205,-1,158,205,160,-1,
        ]
    }
}
Shape{
    appearance Appearance {
        material  Material {
            diffuseColor 1.0 1.0 1.0
            specularColor 0.5019607843137255 0.5019607843137255 0.5019607843137255
            ambientIntensity 1.0
            transparency 0.0
            shininess 0.5
        }
    }
    geometry IndexedFaceSet {
        ccw TRUE
        solid FALSE
        coord DEF co Coordinate {
            point [
                -0.2796 1.2972 2.3875, -0.2865 1.2972 2.3922, -0.2574 1.2972 2.4646, -0.2405 1.2972 2.4646, -0.2405 1.2972 2.3823, -0.2566 1.2972 2.4646, -0.256 1.2972 2.3823, -0.2708 1.2972 2.384, -0.2878 1.2972 2.3934, -0.2929 1.2972 2.3998, -0.2967 1.2972 2.4077, -0.2992 1.2972 2.4245, -0.2875 1.2972 2.4546, -0.2803 1.2972 2.4594, -0.2976 1.2972 2.4378, -0.2946 1.2972 2.4456, -0.2905 1.2972 2.4516, -0.2988 1.2972 2.4174, -0.2712 1.2972 2.4629
            ]
        }
        coordIndex [
            0,1,2,-1,3,4,5,-1,5,4,6,-1,5,6,2,-1,2,6,7,-1,2,7,0,-1,1,8,2,-1,2,8,9,-1,2,9,10,-1,11,12,13,-1,14,15,11,-1,11,15,16,-1,11,16,12,-1,10,17,2,-1,2,17,11,-1,2,11,18,-1,18,11,13,-1,
        ]
    }
}
Shape{
    appearance Appearance {
        material  Material {
            diffuseColor 0.0 0.0 0.0
            specularColor 0.0 0.0 0.0
            ambientIntensity 0.0
            transparency 0.0
            shininess 0.5
        }
    }
    geometry IndexedFaceSet {
        ccw TRUE
        solid FALSE
        coord DEF co Coordinate {
            point [
                -0.3494 1.3012 2.4114, -0.3654 1.3012 2.4558, -0.3602 1.3012 2.4769, -0.3196 1.3012 2.3701, -0.3348 1.3012 2.3701, -0.3451 1.3012 2.3993, -0.3663 1.3012 2.4589, -0.3671 1.3012 2.4632, -0.375 1.3012 2.4769, -0.3675 1.3012 2.4632, -0.3683 1.3012 2.4587, -0.3691 1.3012 2.4558, -0.3853 1.3012 2.4114, -0.4156 1.3012 2.3701, -0.4004 1.3012 2.3701, -0.3895 1.3012 2.3993, -0.375 1.2972 2.4769, -0.4156 1.2972 2.3701, -0.3602 1.2972 2.4769, -0.3196 1.2972 2.3701, -0.3503 1.2972 2.4509, -0.3348 1.2972 2.3701, -0.3451 1.2972 2.3993, -0.3895 1.2972 2.3993, -0.3503 1.2972 2.3993, -0.4004 1.2972 2.3701, -0.3494 1.2972 2.4114, -0.3853 1.2972 2.4114, -0.3691 1.2972 2.4558, -0.3675 1.2972 2.4632, -0.3683 1.2972 2.4587, -0.3671 1.2972 2.4632, -0.3654 1.2972 2.4558, -0.3663 1.2972 2.4589
            ]
        }
        coordIndex [
            0,1,2,-1,3,4,5,-1,1,6,2,-1,2,6,7,-1,2,7,8,-1,8,7,9,-1,8,9,10,-1,10,11,8,-1,8,11,12,-1,8,12,13,-1,14,13,15,-1,15,13,12,-1,15,12,5,-1,5,12,0,-1,5,0,3,-1,3,0,2,-1,8,13,16,-1,16,13,17,-1,2,8,18,-1,18,8,16,-1,19,3,20,-1,20,3,2,-1,20,2,18,-1,4,3,21,-1,21,3,19,-1,5,4,22,-1,22,4,21,-1,23,15,24,-1,24,15,5,-1,24,5,22,-1,14,15,25,-1,25,15,23,-1,13,14,17,-1,17,14,25,-1,0,12,26,-1,26,12,27,-1,12,11,27,-1,27,11,28,-1,9,29,30,-1,9,30,10,-1,10,30,28,-1,10,28,11,-1,9,7,29,-1,29,7,31,-1,1,32,33,-1,1,33,6,-1,6,33,31,-1,6,31,7,-1,1,0,32,-1,32,0,26,-1,
        ]
    }
}
Shape{
    appearance Appearance {
        material  Material {
            diffuseColor 1.0 1.0 1.0
            specularColor 0.5019607843137255 0.5019607843137255 0.5019607843137255
            ambientIntensity 1.0
            transparency 0.0
            shininess 0.5
        }
    }
    geometry IndexedFaceSet {
        ccw TRUE
        solid FALSE
        coord DEF co Coordinate {
            point [
                -0.3675 1.2972 2.4632, -0.3671 1.2972 2.4632, -0.3683 1.2972 2.4587, -0.3663 1.2972 2.4589, -0.3691 1.2972 2.4558, -0.3654 1.2972 2.4558, -0.3853 1.2972 2.4114, -0.3494 1.2972 2.4114
            ]
        }
        coordIndex [
            0,1,2,-1,2,1,3,-1,2,3,4,-1,4,3,5,-1,4,5,6,-1,6,5,7,-1,
        ]
    }
}
Shape{
    appearance Appearance {
        material  Material {
            diffuseColor 0.0 0.0 0.0
            specularColor 0.0 0.0 0.0
            ambientIntensity 0.0
            transparency 0.0
            shininess 0.5
        }
    }
    geometry IndexedFaceSet {
        ccw TRUE
        solid FALSE
        coord DEF co Coordinate {
            point [
                -0.0446 1.3012 2.2129, -0.0446 1.3012 2.2008, -0.0446 1.2972 2.2129, -0.0446 1.2972 2.2008, -0.001 1.3012 2.2129, -0.001 1.2972 2.2129, -0.001 1.3012 2.2488, -0.001 1.2972 2.2488, -0.0391 1.3012 2.2488, -0.0391 1.2972 2.2488, -0.0391 1.3012 2.2611, -0.0391 1.2972 2.2611, -0.001 1.3012 2.2611, -0.001 1.2972 2.2611, -0.001 1.3012 2.2952, -0.001 1.2972 2.2952, -0.0422 1.3012 2.2952, -0.0422 1.2972 2.2952, -0.0422 1.3012 2.3075, -0.0422 1.2972 2.3075, 0.0128 1.3012 2.3075, 0.0128 1.2972 2.3075, 0.0128 1.3012 2.2008, 0.0128 1.2972 2.2008, -0.1053 1.3012 2.2008, -0.1187 1.3012 2.2008, -0.1053 1.3012 2.2126, -0.1187 1.3012 2.2498, -0.1053 1.3012 2.2492, -0.0762 1.3012 2.2332, -0.0793 1.3012 2.2347, -0.1049 1.3012 2.2126, -0.0979 1.3012 2.2145, -0.1028 1.3012 2.2093, -0.0941 1.3012 2.212, -0.0874 1.3012 2.2366, -0.1053 1.3012 2.239, -0.1053 1.3012 2.2317, -0.1053 1.3012 2.2308, -0.1044 1.3012 2.2249, -0.1025 1.3012 2.2201, -0.0996 1.3012 2.2162, -0.1048 1.3012 2.2551, -0.1177 1.3012 2.2599, -0.1034 1.3012 2.2599, -0.1156 1.3012 2.266, -0.1019 1.3012 2.2627, -0.1128 1.3012 2.2703, -0.0999 1.3012 2.2648, -0.1093 1.3012 2.2738, -0.0975 1.3012 2.2663, -0.1048 1.3012 2.2763, -0.0944 1.3012 2.2674, -0.0992 1.3012 2.278, -0.0899 1.3012 2.2679, -0.0911 1.3012 2.2788, -0.0813 1.3012 2.2669, -0.0776 1.3012 2.2771, -0.0729 1.3012 2.2639, -0.0677 1.3012 2.2733, -0.0649 1.3012 2.2587, -0.0649 1.3012 2.2717, -0.0737 1.3012 2.2145, -0.064 1.3012 2.205, -0.0748 1.3012 2.2134, -0.0685 1.3012 2.2018, -0.0775 1.3012 2.2116, -0.0736 1.3012 2.1999, -0.0805 1.3012 2.2104, -0.0816 1.3012 2.199, -0.085 1.3012 2.2099, -0.0885 1.3012 2.1997, -0.0901 1.3012 2.2105, -0.0939 1.3012 2.2017, -0.0986 1.3012 2.2048, -0.0711 1.3012 2.2244, -0.0575 1.3012 2.223, -0.071 1.3012 2.2223, -0.0574 1.3012 2.2212, -0.0713 1.3012 2.2192, -0.0581 1.3012 2.2151, -0.0722 1.3012 2.2168, -0.0597 1.3012 2.2106, -0.0625 1.3012 2.2065, -0.0827 1.3012 2.2461, -0.0728 1.3012 2.2437, -0.0745 1.3012 2.2319, -0.067 1.3012 2.2408, -0.0729 1.3012 2.2299, -0.0629 1.3012 2.2372, -0.0717 1.3012 2.2275, -0.0602 1.3012 2.2334, -0.0583 1.3012 2.2287, -0.0911 1.2972 2.2788, -0.0776 1.2972 2.2771, -0.0677 1.2972 2.2733, -0.0649 1.2972 2.2717, -0.0649 1.2972 2.2587, -0.0729 1.2972 2.2639, -0.0813 1.2972 2.2669, -0.0899 1.2972 2.2679, -0.0944 1.2972 2.2674, -0.0975 1.2972 2.2663, -0.0999 1.2972 2.2648, -0.1019 1.2972 2.2627, -0.1034 1.2972 2.2599, -0.1048 1.2972 2.2551, -0.1053 1.2972 2.2492, -0.0827 1.2972 2.2461, -0.0728 1.2972 2.2437, -0.067 1.2972 2.2408, -0.0629 1.2972 2.2372, -0.0602 1.2972 2.2334, -0.0583 1.2972 2.2287, -0.0575 1.2972 2.223, -0.0574 1.2972 2.2212, -0.0581 1.2972 2.2151, -0.0597 1.2972 2.2106, -0.0625 1.2972 2.2065, -0.064 1.2972 2.205, -0.0816 1.2972 2.199, -0.0738 1.2972 2.1999, -0.0736 1.2972 2.1999, -0.0685 1.2972 2.2018, -0.0885 1.2972 2.1997, -0.0889 1.2972 2.1999, -0.0939 1.2972 2.2017, -0.0986 1.2972 2.2048, -0.1028 1.2972 2.2093, -0.1049 1.2972 2.2126, -0.1053 1.2972 2.2126, -0.1053 1.2972 2.2008, -0.1187 1.2972 2.2008, -0.1187 1.2972 2.2498, -0.1177 1.2972 2.2599, -0.1156 1.2972 2.266, -0.1128 1.2972 2.2703, -0.1093 1.2972 2.2738, -0.1048 1.2972 2.2763, -0.0992 1.2972 2.278, -0.0745 1.2972 2.2319, -0.0762 1.2972 2.2332, -0.0793 1.2972 2.2347, -0.0874 1.2972 2.2366, -0.071 1.2972 2.2223, -0.0711 1.2972 2.2244, -0.0717 1.2972 2.2275, -0.0729 1.2972 2.2299, -0.0748 1.2972 2.2134, -0.0737 1.2972 2.2145, -0.0722 1.2972 2.2168, -0.0713 1.2972 2.2192, -0.085 1.2972 2.2099, -0.0805 1.2972 2.2104, -0.0775 1.2972 2.2116, -0.0996 1.2972 2.2162, -0.0979 1.2972 2.2145, -0.0941 1.2972 2.212, -0.0901 1.2972 2.2105, -0.1053 1.2972 2.2317, -0.1053 1.2972 2.2308, -0.1044 1.2972 2.2249, -0.1025 1.2972 2.2201, -0.1053 1.2972 2.239
            ]
        }
        coordIndex [
            0,1,2,-1,2,1,3,-1,4,0,5,-1,5,0,2,-1,6,4,7,-1,7,4,5,-1,8,6,9,-1,9,6,7,-1,10,8,11,-1,11,8,9,-1,12,10,13,-1,13,10,11,-1,14,12,15,-1,15,12,13,-1,16,14,17,-1,17,14,15,-1,18,16,19,-1,19,16,17,-1,20,18,21,-1,21,18,19,-1,22,20,23,-1,23,20,21,-1,1,22,3,-1,3,22,23,-1,22,1,0,-1,0,4,22,-1,22,4,6,-1,22,6,20,-1,16,18,14,-1,14,18,20,-1,14,20,12,-1,12,20,6,-1,12,6,10,-1,10,6,8,-1,24,25,26,-1,26,25,27,-1,28,29,30,-1,31,32,33,-1,33,32,34,-1,35,36,27,-1,27,36,37,-1,37,38,27,-1,27,38,39,-1,27,39,26,-1,26,39,40,-1,26,40,31,-1,31,40,41,-1,31,41,32,-1,30,35,28,-1,28,35,27,-1,28,27,42,-1,42,27,43,-1,42,43,44,-1,44,43,45,-1,44,45,46,-1,46,45,47,-1,46,47,48,-1,48,47,49,-1,48,49,50,-1,50,49,51,-1,50,51,52,-1,52,51,53,-1,52,53,54,-1,54,53,55,-1,54,55,56,-1,56,55,57,-1,56,57,58,-1,58,57,59,-1,58,59,60,-1,60,59,61,-1,62,63,64,-1,64,63,65,-1,64,65,66,-1,66,65,67,-1,66,67,68,-1,68,67,69,-1,68,69,70,-1,70,69,71,-1,70,71,72,-1,72,71,73,-1,72,73,34,-1,34,73,74,-1,34,74,33,-1,75,76,77,-1,77,76,78,-1,77,78,79,-1,79,78,80,-1,79,80,81,-1,81,80,82,-1,81,82,62,-1,62,82,83,-1,62,83,63,-1,28,84,29,-1,29,84,85,-1,29,85,86,-1,86,85,87,-1,86,87,88,-1,88,87,89,-1,88,89,90,-1,90,89,91,-1,90,91,75,-1,75,91,92,-1,75,92,76,-1,55,93,94,-1,55,94,57,-1,57,94,95,-1,57,95,59,-1,59,95,96,-1,59,96,61,-1,60,61,97,-1,97,61,96,-1,60,97,98,-1,60,98,58,-1,58,98,99,-1,58,99,56,-1,56,99,100,-1,56,100,54,-1,54,100,101,-1,54,101,52,-1,52,101,102,-1,52,102,50,-1,50,102,103,-1,50,103,48,-1,48,103,104,-1,48,104,46,-1,46,104,105,-1,46,105,44,-1,44,105,106,-1,44,106,42,-1,42,106,107,-1,42,107,28,-1,84,28,108,-1,108,28,107,-1,84,108,109,-1,84,109,85,-1,85,109,110,-1,85,110,87,-1,87,110,111,-1,87,111,89,-1,89,111,112,-1,89,112,91,-1,91,112,113,-1,91,113,92,-1,92,113,114,-1,92,114,76,-1,76,114,115,-1,76,115,78,-1,78,115,116,-1,78,116,80,-1,80,116,117,-1,80,117,82,-1,82,117,118,-1,82,118,83,-1,83,118,119,-1,83,119,63,-1,120,69,121,-1,121,69,67,-1,121,67,122,-1,122,67,65,-1,122,65,123,-1,123,65,63,-1,123,63,119,-1,69,120,124,-1,69,124,71,-1,71,124,125,-1,71,125,73,-1,125,126,73,-1,73,126,127,-1,73,127,74,-1,74,127,128,-1,74,128,33,-1,33,128,129,-1,33,129,31,-1,26,31,130,-1,130,31,129,-1,24,26,131,-1,131,26,130,-1,25,24,132,-1,132,24,131,-1,27,25,133,-1,133,25,132,-1,27,133,134,-1,27,134,43,-1,43,134,135,-1,43,135,45,-1,45,135,136,-1,45,136,47,-1,47,136,137,-1,47,137,49,-1,49,137,138,-1,49,138,51,-1,51,138,139,-1,51,139,53,-1,53,139,93,-1,53,93,55,-1,86,140,141,-1,86,141,29,-1,29,141,142,-1,29,142,30,-1,30,142,143,-1,30,143,35,-1,77,144,145,-1,77,145,75,-1,75,145,146,-1,75,146,90,-1,90,146,147,-1,90,147,88,-1,88,147,140,-1,88,140,86,-1,64,148,149,-1,64,149,62,-1,62,149,150,-1,62,150,81,-1,81,150,151,-1,81,151,79,-1,79,151,144,-1,79,144,77,-1,70,152,153,-1,70,153,68,-1,68,153,154,-1,68,154,66,-1,66,154,148,-1,66,148,64,-1,41,155,156,-1,41,156,32,-1,32,156,157,-1,32,157,34,-1,34,157,158,-1,34,158,72,-1,72,158,152,-1,72,152,70,-1,37,159,160,-1,37,160,38,-1,38,160,161,-1,38,161,39,-1,39,161,162,-1,39,162,40,-1,40,162,155,-1,40,155,41,-1,37,36,159,-1,159,36,163,-1,36,35,163,-1,163,35,143,-1,
        ]
    }
}
Shape{
    appearance Appearance {
        material  Material {
            diffuseColor 1.0 1.0 1.0
            specularColor 0.5019607843137255 0.5019607843137255 0.5019607843137255
            ambientIntensity 1.0
            transparency 0.0
            shininess 0.5
        }
    }
    geometry IndexedFaceSet {
        ccw TRUE
        solid FALSE
        coord DEF co Coordinate {
            point [
                -0.1053 1.2972 2.2308, -0.1053 1.2972 2.2317, -0.0745 1.2972 2.2319, -0.1053 1.2972 2.239, -0.0874 1.2972 2.2366, -0.0793 1.2972 2.2347, -0.0762 1.2972 2.2332, -0.1044 1.2972 2.2249, -0.0729 1.2972 2.2299, -0.1025 1.2972 2.2201, -0.0737 1.2972 2.2145, -0.0748 1.2972 2.2134, -0.0979 1.2972 2.2145, -0.0722 1.2972 2.2168, -0.0941 1.2972 2.212, -0.0901 1.2972 2.2105, -0.085 1.2972 2.2099, -0.0717 1.2972 2.2275, -0.0711 1.2972 2.2244, -0.0996 1.2972 2.2162, -0.071 1.2972 2.2223, -0.0713 1.2972 2.2192, -0.0775 1.2972 2.2116, -0.0805 1.2972 2.2104
            ]
        }
        coordIndex [
            0,1,2,-1,1,3,4,-1,4,5,1,-1,1,5,6,-1,1,6,2,-1,0,2,7,-1,7,2,8,-1,7,8,9,-1,10,11,12,-1,10,12,13,-1,14,12,15,-1,15,12,16,-1,8,17,9,-1,9,17,18,-1,9,18,19,-1,19,18,20,-1,19,20,12,-1,12,20,21,-1,12,21,13,-1,11,22,12,-1,12,22,23,-1,12,23,16,-1,
        ]
    }
}
Shape{
    appearance Appearance {
        material  Material {
            diffuseColor 0.0 0.0 0.0
            specularColor 0.0 0.0 0.0
            ambientIntensity 0.0
            transparency 0.0
            shininess 0.5
        }
    }
    geometry IndexedFaceSet {
        ccw TRUE
        solid FALSE
        coord DEF co Coordinate {
            point [
                -0.1368 1.2972 2.2172, -0.1368 1.3012 2.2172, -0.142 1.3012 2.214, -0.1588 1.3012 2.2099, -0.1588 1.2972 2.2099, -0.1503 1.2972 2.2109, -0.1503 1.3012 2.2109, -0.143 1.2972 2.2137, -0.142 1.2972 2.214, -0.1368 1.3012 2.2034, -0.1368 1.2972 2.2034, -0.1452 1.3012 2.2004, -0.143 1.2972 2.2012, -0.1575 1.2972 2.199, -0.1575 1.3012 2.199, -0.1496 1.2972 2.1999, -0.1452 1.2972 2.2004, -0.1666 1.2972 2.1999, -0.1678 1.3012 2.2, -0.1678 1.2972 2.2, -0.1753 1.2972 2.2024, -0.1753 1.3012 2.2024, -0.1797 1.2972 2.205, -0.1797 1.3012 2.205, -0.1835 1.2972 2.2084, -0.1835 1.3012 2.2084, -0.186 1.2972 2.2119, -0.186 1.3012 2.2119, -0.1877 1.2972 2.2161, -0.1877 1.3012 2.2161, -0.1883 1.2972 2.2215, -0.1883 1.3012 2.2215, -0.1877 1.2972 2.2265, -0.1877 1.3012 2.2265, -0.1863 1.2972 2.2304, -0.1863 1.3012 2.2304, -0.1838 1.2972 2.2341, -0.1838 1.3012 2.2341, -0.1806 1.2972 2.237, -0.1806 1.3012 2.237, -0.1717 1.2972 2.2419, -0.1717 1.3012 2.2419, -0.1666 1.2972 2.244, -0.1666 1.3012 2.244, -0.1583 1.2972 2.2476, -0.1583 1.3012 2.2476, -0.1536 1.2972 2.2505, -0.1536 1.3012 2.2505, -0.1523 1.2972 2.252, -0.1523 1.3012 2.252, -0.1513 1.2972 2.2538, -0.1513 1.3012 2.2538, -0.1508 1.2972 2.2559, -0.1508 1.3012 2.2559, -0.1507 1.2972 2.2576, -0.1507 1.3012 2.2576, -0.1509 1.2972 2.2598, -0.1509 1.3012 2.2598, -0.1516 1.2972 2.2616, -0.1516 1.3012 2.2616, -0.1527 1.2972 2.2633, -0.1527 1.3012 2.2633, -0.1547 1.2972 2.2651, -0.1547 1.3012 2.2651, -0.1577 1.2972 2.2667, -0.1577 1.3012 2.2667, -0.1613 1.2972 2.2676, -0.1613 1.3012 2.2676, -0.1653 1.2972 2.2679, -0.1653 1.3012 2.2679, -0.174 1.2972 2.2669, -0.174 1.3012 2.2669, -0.1816 1.2972 2.2641, -0.1816 1.3012 2.2641, -0.1846 1.2972 2.2624, -0.1846 1.3012 2.2624, -0.1846 1.3012 2.2754, -0.1846 1.2972 2.2754, -0.1757 1.2972 2.278, -0.1757 1.3012 2.278, -0.1666 1.2972 2.2788, -0.1666 1.3012 2.2788, -0.157 1.2972 2.2778, -0.157 1.3012 2.2778, -0.1496 1.2972 2.2752, -0.1496 1.3012 2.2752, -0.1454 1.2972 2.2727, -0.1454 1.3012 2.2727, -0.143 1.2972 2.2705, -0.1415 1.3012 2.2691, -0.1415 1.2972 2.2691, -0.139 1.2972 2.2655, -0.139 1.3012 2.2655, -0.1374 1.2972 2.2612, -0.1374 1.3012 2.2612, -0.1369 1.2972 2.2564, -0.1369 1.3012 2.2564, -0.1374 1.2972 2.2512, -0.1374 1.3012 2.2512, -0.1389 1.2972 2.2472, -0.1389 1.3012 2.2472, -0.1407 1.2972 2.2444, -0.1407 1.3012 2.2444, -0.1571 1.2972 2.2343, -0.1571 1.3012 2.2343, -0.1492 1.3012 2.2379, -0.1429 1.2972 2.2421, -0.1429 1.3012 2.2421, -0.143 1.2972 2.242, -0.1492 1.2972 2.2379, -0.1659 1.2972 2.2306, -0.1659 1.3012 2.2306, -0.1711 1.2972 2.2275, -0.1711 1.3012 2.2275, -0.1728 1.2972 2.2257, -0.1728 1.3012 2.2257, -0.1738 1.2972 2.2239, -0.1738 1.3012 2.2239, -0.1744 1.2972 2.2219, -0.1744 1.3012 2.2219, -0.1746 1.2972 2.2202, -0.1746 1.3012 2.2202, -0.1743 1.2972 2.2176, -0.1743 1.3012 2.2176, -0.1736 1.2972 2.2157, -0.1736 1.3012 2.2157, -0.1724 1.2972 2.214, -0.1724 1.3012 2.214, -0.1709 1.2972 2.2127, -0.1709 1.3012 2.2127, -0.1697 1.2972 2.2119, -0.1697 1.3012 2.2119, -0.1662 1.2972 2.2106, -0.1662 1.3012 2.2106, -0.1594 1.2972 2.2099, -0.1594 1.3012 2.2099, -0.2546 1.3012 2.277, -0.2684 1.3012 2.277, -0.2546 1.2972 2.277, -0.2684 1.2972 2.277, -0.2338 1.3012 2.2196, -0.2338 1.2972 2.2196, -0.2327 1.2972 2.216, -0.2327 1.3012 2.216, -0.2321 1.2972 2.2134, -0.2321 1.3012 2.2134, -0.2318 1.3012 2.2134, -0.2318 1.2972 2.2134, -0.2301 1.3012 2.2197, -0.2301 1.2972 2.2197, -0.2102 1.2972 2.277, -0.2102 1.3012 2.277, -0.2167 1.2972 2.2584, -0.1952 1.3012 2.277, -0.1952 1.2972 2.277, -0.2252 1.2972 2.2009, -0.2252 1.3012 2.2009, -0.2167 1.2972 2.2226, -0.2193 1.2972 2.1871, -0.2193 1.3012 2.1871, -0.2247 1.2972 2.1999, -0.2167 1.2972 2.1822, -0.2166 1.3012 2.1822, -0.2166 1.2972 2.1822, -0.2142 1.2972 2.1794, -0.2142 1.3012 2.1794, -0.2118 1.2972 2.1778, -0.2118 1.3012 2.1778, -0.2089 1.2972 2.1767, -0.2089 1.3012 2.1767, -0.2056 1.2972 2.1763, -0.2056 1.3012 2.1763, -0.2007 1.2972 2.1769, -0.2007 1.3012 2.1769, -0.198 1.2972 2.1778, -0.198 1.3012 2.1778, -0.198 1.3012 2.1659, -0.198 1.2972 2.1659, -0.2037 1.2972 2.165, -0.2037 1.3012 2.165, -0.2066 1.2972 2.1648, -0.2066 1.3012 2.1648, -0.212 1.2972 2.1655, -0.212 1.3012 2.1655, -0.2167 1.2972 2.1672, -0.2173 1.3012 2.1675, -0.2173 1.2972 2.1675, -0.222 1.2972 2.1707, -0.222 1.3012 2.1707, -0.2229 1.2972 2.1716, -0.2229 1.3012 2.1716, -0.2278 1.2972 2.1775, -0.2278 1.3012 2.1775, -0.2338 1.2972 2.1892, -0.2338 1.3012 2.1892, -0.238 1.2972 2.1999, -0.3403 1.3012 2.2129, -0.3403 1.3012 2.2008, -0.3403 1.2972 2.2129, -0.3403 1.2972 2.2008, -0.2966 1.2972 2.2129, -0.2966 1.3012 2.2129, -0.3166 1.2972 2.2129, -0.2966 1.3012 2.2488, -0.2966 1.2972 2.2488, -0.3348 1.2972 2.2488, -0.3348 1.3012 2.2488, -0.3166 1.2972 2.2488, -0.3348 1.3012 2.2611, -0.3348 1.2972 2.2611, -0.2966 1.2972 2.2611, -0.2966 1.3012 2.2611, -0.3166 1.2972 2.2611, -0.2966 1.3012 2.2952, -0.2966 1.2972 2.2952, -0.3378 1.2972 2.2952, -0.3378 1.3012 2.2952, -0.3166 1.2972 2.2952, -0.3378 1.3012 2.3075, -0.3378 1.2972 2.3075, -0.2828 1.2972 2.3075, -0.2828 1.3012 2.3075, -0.3166 1.2972 2.3075, -0.2828 1.3012 2.2008, -0.2828 1.2972 2.2008, -0.3166 1.2972 2.2008, -0.4313 1.3012 2.2157, -0.4202 1.3012 2.2229, -0.4201 1.3012 2.2077, -0.4133 1.3012 2.2181, -0.4079 1.3012 2.203, -0.4044 1.3012 2.2147, -0.3898 1.3012 2.2008, -0.3897 1.3012 2.2129, -0.3604 1.3012 2.2008, -0.3742 1.3012 2.2129, -0.3604 1.3012 2.3075, -0.3742 1.3012 2.2952, -0.3909 1.3012 2.3075, -0.3903 1.3012 2.2952, -0.3911 1.3012 2.2952, -0.4072 1.3012 2.3057, -0.4049 1.3012 2.2935, -0.4201 1.3012 2.301, -0.414 1.3012 2.2901, -0.4313 1.3012 2.2934, -0.4212 1.3012 2.2852, -0.435 1.3012 2.2897, -0.4242 1.3012 2.2822, -0.4416 1.3012 2.2804, -0.4283 1.3012 2.2762, -0.4456 1.3012 2.2702, -0.4313 1.3012 2.2684, -0.4474 1.3012 2.2555, -0.4329 1.3012 2.2551, -0.447 1.3012 2.2487, -0.4325 1.3012 2.2481, -0.4444 1.3012 2.2362, -0.4304 1.3012 2.2384, -0.4392 1.3012 2.2252, -0.4266 1.3012 2.2305, -0.4215 1.3012 2.2241, -0.3898 1.2972 2.2008, -0.3604 1.2972 2.2008, -0.4079 1.2972 2.203, -0.4201 1.2972 2.2077, -0.4313 1.2972 2.2157, -0.4392 1.2972 2.2252, -0.4444 1.2972 2.2362, -0.447 1.2972 2.2487, -0.4474 1.2972 2.2555, -0.4456 1.2972 2.2702, -0.4416 1.2972 2.2804, -0.435 1.2972 2.2897, -0.4313 1.2972 2.2934, -0.4201 1.2972 2.301, -0.4072 1.2972 2.3057, -0.3909 1.2972 2.3075, -0.3604 1.2972 2.3075, -0.3903 1.2972 2.2952, -0.3742 1.2972 2.2952, -0.3742 1.2972 2.2129, -0.3897 1.2972 2.2129, -0.4215 1.2972 2.2241, -0.4202 1.2972 2.2229, -0.4133 1.2972 2.2181, -0.4044 1.2972 2.2147, -0.4329 1.2972 2.2551, -0.4325 1.2972 2.2481, -0.4304 1.2972 2.2384, -0.4266 1.2972 2.2305, -0.4212 1.2972 2.2852, -0.4242 1.2972 2.2822, -0.4283 1.2972 2.2762, -0.4313 1.2972 2.2684, -0.3911 1.2972 2.2952, -0.4049 1.2972 2.2935, -0.414 1.2972 2.2901
            ]
        }
        coordIndex [
            0,1,2,-1,3,4,5,-1,3,5,6,-1,6,5,7,-1,6,7,2,-1,2,7,8,-1,2,8,0,-1,9,1,10,-1,10,1,0,-1,9,10,11,-1,11,10,12,-1,13,14,15,-1,15,14,11,-1,15,11,16,-1,16,11,12,-1,13,17,14,-1,14,17,18,-1,17,19,18,-1,18,19,20,-1,18,20,21,-1,21,20,22,-1,21,22,23,-1,23,22,24,-1,23,24,25,-1,25,24,26,-1,25,26,27,-1,27,26,28,-1,27,28,29,-1,29,28,30,-1,29,30,31,-1,31,30,32,-1,31,32,33,-1,33,32,34,-1,33,34,35,-1,35,34,36,-1,35,36,37,-1,37,36,38,-1,37,38,39,-1,39,38,40,-1,39,40,41,-1,41,40,42,-1,41,42,43,-1,43,42,44,-1,43,44,45,-1,45,44,46,-1,45,46,47,-1,47,46,48,-1,47,48,49,-1,49,48,50,-1,49,50,51,-1,51,50,52,-1,51,52,53,-1,53,52,54,-1,53,54,55,-1,55,54,56,-1,55,56,57,-1,57,56,58,-1,57,58,59,-1,59,58,60,-1,59,60,61,-1,61,60,62,-1,61,62,63,-1,63,62,64,-1,63,64,65,-1,65,64,66,-1,65,66,67,-1,67,66,68,-1,67,68,69,-1,69,68,70,-1,69,70,71,-1,71,70,72,-1,71,72,73,-1,73,72,74,-1,73,74,75,-1,76,75,77,-1,77,75,74,-1,76,77,78,-1,76,78,79,-1,79,78,80,-1,79,80,81,-1,81,80,82,-1,81,82,83,-1,83,82,84,-1,83,84,85,-1,85,84,86,-1,85,86,87,-1,86,88,87,-1,87,88,89,-1,88,90,89,-1,89,90,91,-1,89,91,92,-1,92,91,93,-1,92,93,94,-1,94,93,95,-1,94,95,96,-1,96,95,97,-1,96,97,98,-1,98,97,99,-1,98,99,100,-1,100,99,101,-1,100,101,102,-1,103,104,105,-1,102,101,106,-1,102,106,107,-1,107,106,108,-1,107,108,105,-1,105,108,109,-1,105,109,103,-1,104,103,110,-1,104,110,111,-1,111,110,112,-1,111,112,113,-1,113,112,114,-1,113,114,115,-1,115,114,116,-1,115,116,117,-1,117,116,118,-1,117,118,119,-1,119,118,120,-1,119,120,121,-1,121,120,122,-1,121,122,123,-1,123,122,124,-1,123,124,125,-1,125,124,126,-1,125,126,127,-1,127,126,128,-1,127,128,129,-1,129,128,130,-1,129,130,131,-1,131,130,132,-1,131,132,133,-1,133,132,134,-1,133,134,135,-1,135,134,4,-1,135,4,3,-1,61,63,85,-1,85,63,83,-1,45,104,43,-1,43,104,111,-1,43,111,41,-1,14,3,11,-1,11,3,6,-1,11,6,9,-1,9,6,2,-1,9,2,1,-1,63,65,83,-1,83,65,67,-1,83,67,81,-1,81,67,69,-1,81,69,79,-1,79,69,71,-1,79,71,76,-1,76,71,73,-1,76,73,75,-1,41,111,39,-1,39,111,113,-1,39,113,37,-1,37,113,115,-1,37,115,35,-1,35,115,117,-1,35,117,33,-1,33,117,119,-1,33,119,31,-1,31,119,121,-1,31,121,29,-1,29,121,123,-1,29,123,27,-1,27,123,125,-1,27,125,25,-1,25,125,127,-1,25,127,23,-1,23,127,129,-1,23,129,21,-1,21,129,131,-1,21,131,18,-1,18,131,133,-1,18,133,14,-1,14,133,135,-1,14,135,3,-1,85,87,61,-1,61,87,89,-1,61,89,59,-1,59,89,92,-1,59,92,57,-1,57,92,94,-1,57,94,55,-1,55,94,96,-1,55,96,53,-1,53,96,98,-1,53,98,51,-1,51,98,100,-1,51,100,49,-1,49,100,102,-1,49,102,47,-1,47,102,107,-1,47,107,45,-1,45,107,105,-1,45,105,104,-1,136,137,138,-1,138,137,139,-1,140,136,141,-1,141,136,138,-1,140,141,142,-1,140,142,143,-1,143,142,144,-1,143,144,145,-1,146,145,147,-1,147,145,144,-1,148,146,149,-1,149,146,147,-1,150,151,152,-1,152,151,148,-1,152,148,149,-1,153,151,154,-1,154,151,150,-1,155,156,157,-1,157,156,153,-1,157,153,154,-1,158,159,160,-1,160,159,156,-1,160,156,155,-1,158,161,159,-1,159,161,162,-1,161,163,162,-1,162,163,164,-1,162,164,165,-1,165,164,166,-1,165,166,167,-1,167,166,168,-1,167,168,169,-1,169,168,170,-1,169,170,171,-1,171,170,172,-1,171,172,173,-1,173,172,174,-1,173,174,175,-1,176,175,177,-1,177,175,174,-1,176,177,178,-1,176,178,179,-1,179,178,180,-1,179,180,181,-1,181,180,182,-1,181,182,183,-1,183,182,184,-1,183,184,185,-1,184,186,185,-1,185,186,187,-1,185,187,188,-1,188,187,189,-1,188,189,190,-1,190,189,191,-1,190,191,192,-1,192,191,193,-1,192,193,194,-1,139,137,195,-1,195,137,194,-1,195,194,193,-1,143,145,194,-1,137,136,194,-1,194,136,140,-1,194,140,143,-1,151,153,148,-1,148,153,156,-1,148,156,146,-1,175,176,173,-1,173,176,179,-1,173,179,171,-1,171,179,181,-1,171,181,169,-1,169,181,183,-1,169,183,167,-1,167,183,185,-1,167,185,165,-1,145,146,194,-1,194,146,156,-1,194,156,192,-1,156,159,192,-1,192,159,162,-1,192,162,190,-1,190,162,165,-1,190,165,188,-1,188,165,185,-1,196,197,198,-1,198,197,199,-1,200,201,202,-1,202,201,196,-1,202,196,198,-1,203,201,204,-1,204,201,200,-1,205,206,207,-1,207,206,203,-1,207,203,204,-1,208,206,209,-1,209,206,205,-1,210,211,212,-1,212,211,208,-1,212,208,209,-1,213,211,214,-1,214,211,210,-1,215,216,217,-1,217,216,213,-1,217,213,214,-1,218,216,219,-1,219,216,215,-1,220,221,222,-1,222,221,218,-1,222,218,219,-1,223,221,224,-1,224,221,220,-1,199,197,225,-1,225,197,223,-1,225,223,224,-1,223,197,196,-1,196,201,223,-1,223,201,203,-1,223,203,221,-1,216,218,213,-1,213,218,221,-1,213,221,211,-1,211,221,203,-1,211,203,208,-1,208,203,206,-1,226,227,228,-1,228,227,229,-1,228,229,230,-1,230,229,231,-1,230,231,232,-1,232,231,233,-1,232,233,234,-1,234,233,235,-1,234,235,236,-1,236,235,237,-1,236,237,238,-1,237,239,238,-1,238,239,240,-1,238,240,241,-1,241,240,242,-1,241,242,243,-1,243,242,244,-1,243,244,245,-1,245,244,246,-1,245,246,247,-1,247,246,248,-1,247,248,249,-1,249,248,250,-1,249,250,251,-1,251,250,252,-1,251,252,253,-1,253,252,254,-1,253,254,255,-1,255,254,256,-1,255,256,257,-1,257,256,258,-1,257,258,259,-1,259,258,260,-1,259,260,226,-1,226,260,261,-1,226,261,227,-1,232,234,262,-1,262,234,263,-1,232,262,264,-1,232,264,230,-1,230,264,265,-1,230,265,228,-1,228,265,266,-1,228,266,226,-1,226,266,267,-1,226,267,259,-1,259,267,268,-1,259,268,257,-1,257,268,269,-1,257,269,255,-1,255,269,270,-1,255,270,253,-1,253,270,271,-1,253,271,251,-1,251,271,272,-1,251,272,249,-1,249,272,273,-1,249,273,247,-1,247,273,274,-1,247,274,245,-1,245,274,275,-1,245,275,243,-1,243,275,276,-1,243,276,241,-1,241,276,277,-1,241,277,238,-1,236,238,278,-1,278,238,277,-1,234,236,263,-1,263,236,278,-1,239,237,279,-1,279,237,280,-1,237,235,280,-1,280,235,281,-1,235,233,281,-1,281,233,282,-1,261,283,284,-1,261,284,227,-1,227,284,285,-1,227,285,229,-1,229,285,286,-1,229,286,231,-1,231,286,282,-1,231,282,233,-1,254,287,288,-1,254,288,256,-1,256,288,289,-1,256,289,258,-1,258,289,290,-1,258,290,260,-1,260,290,283,-1,260,283,261,-1,246,291,292,-1,246,292,248,-1,248,292,293,-1,248,293,250,-1,250,293,294,-1,250,294,252,-1,252,294,287,-1,252,287,254,-1,239,279,295,-1,239,295,240,-1,240,295,296,-1,240,296,242,-1,242,296,297,-1,242,297,244,-1,244,297,291,-1,244,291,246,-1,
        ]
    }
}
Shape{
    appearance Appearance {
        material  Material {
            diffuseColor 1.0 1.0 1.0
            specularColor 0.5019607843137255 0.5019607843137255 0.5019607843137255
            ambientIntensity 1.0
            transparency 0.0
            shininess 0.5
        }
    }
    geometry IndexedFaceSet {
        ccw TRUE
        solid FALSE
        coord DEF co Coordinate {
            point [
                -0.4133 1.2972 2.2181, -0.4202 1.2972 2.2229, -0.3911 1.2972 2.2952, -0.3742 1.2972 2.2952, -0.3742 1.2972 2.2129, -0.3903 1.2972 2.2952, -0.3897 1.2972 2.2129, -0.4044 1.2972 2.2147, -0.4215 1.2972 2.2241, -0.4266 1.2972 2.2305, -0.4304 1.2972 2.2384, -0.4329 1.2972 2.2551, -0.4212 1.2972 2.2852, -0.414 1.2972 2.2901, -0.4313 1.2972 2.2684, -0.4283 1.2972 2.2762, -0.4242 1.2972 2.2822, -0.4325 1.2972 2.2481, -0.4049 1.2972 2.2935
            ]
        }
        coordIndex [
            0,1,2,-1,3,4,5,-1,5,4,6,-1,5,6,2,-1,2,6,7,-1,2,7,0,-1,1,8,2,-1,2,8,9,-1,2,9,10,-1,11,12,13,-1,14,15,11,-1,11,15,16,-1,11,16,12,-1,10,17,2,-1,2,17,11,-1,2,11,18,-1,18,11,13,-1,
        ]
    }
}
Shape{
    appearance Appearance {
        material  Material {
            diffuseColor 0.0 0.0 0.0
            specularColor 0.0 0.0 0.0
            ambientIntensity 0.0
            transparency 0.0
            shininess 0.5
        }
    }
    geometry IndexedFaceSet {
        ccw TRUE
        solid FALSE
        coord DEF co Coordinate {
            point [
                -0.4831 1.3012 2.242, -0.4991 1.3012 2.2864, -0.4939 1.3012 2.3075, -0.4533 1.3012 2.2008, -0.4685 1.3012 2.2008, -0.4788 1.3012 2.23, -0.5 1.3012 2.2896, -0.5008 1.3012 2.2939, -0.5087 1.3012 2.3075, -0.5012 1.3012 2.2939, -0.502 1.3012 2.2894, -0.5028 1.3012 2.2864, -0.519 1.3012 2.242, -0.5493 1.3012 2.2008, -0.5341 1.3012 2.2008, -0.5232 1.3012 2.23, -0.5087 1.2972 2.3075, -0.5493 1.2972 2.2008, -0.4939 1.2972 2.3075, -0.4533 1.2972 2.2008, -0.4685 1.2972 2.2008, -0.4788 1.2972 2.23, -0.5232 1.2972 2.23, -0.5341 1.2972 2.2008, -0.4831 1.2972 2.242, -0.519 1.2972 2.242, -0.5028 1.2972 2.2864, -0.5012 1.2972 2.2939, -0.502 1.2972 2.2894, -0.5008 1.2972 2.2939, -0.4991 1.2972 2.2864, -0.5 1.2972 2.2896
            ]
        }
        coordIndex [
            0,1,2,-1,3,4,5,-1,1,6,2,-1,2,6,7,-1,2,7,8,-1,8,7,9,-1,8,9,10,-1,10,11,8,-1,8,11,12,-1,8,12,13,-1,14,13,15,-1,15,13,12,-1,15,12,5,-1,5,12,0,-1,5,0,3,-1,3,0,2,-1,8,13,16,-1,16,13,17,-1,2,8,18,-1,18,8,16,-1,3,2,19,-1,19,2,18,-1,4,3,20,-1,20,3,19,-1,5,4,21,-1,21,4,20,-1,15,5,22,-1,22,5,21,-1,14,15,23,-1,23,15,22,-1,13,14,17,-1,17,14,23,-1,0,12,24,-1,24,12,25,-1,12,11,25,-1,25,11,26,-1,9,27,28,-1,9,28,10,-1,10,28,26,-1,10,26,11,-1,9,7,27,-1,27,7,29,-1,1,30,31,-1,1,31,6,-1,6,31,29,-1,6,29,7,-1,1,0,30,-1,30,0,24,-1,
        ]
    }
}
Shape{
    appearance Appearance {
        material  Material {
            diffuseColor 1.0 1.0 1.0
            specularColor 0.5019607843137255 0.5019607843137255 0.5019607843137255
            ambientIntensity 1.0
            transparency 0.0
            shininess 0.5
        }
    }
    geometry IndexedFaceSet {
        ccw TRUE
        solid FALSE
        coord DEF co Coordinate {
            point [
                -0.5012 1.2972 2.2939, -0.5008 1.2972 2.2939, -0.502 1.2972 2.2894, -0.5 1.2972 2.2896, -0.5028 1.2972 2.2864, -0.4991 1.2972 2.2864, -0.519 1.2972 2.242, -0.4831 1.2972 2.242
            ]
        }
        coordIndex [
            0,1,2,-1,2,1,3,-1,2,3,4,-1,4,3,5,-1,4,5,6,-1,6,5,7,-1,
        ]
    }
}
Shape{
    appearance Appearance {
        material  Material {
            diffuseColor 0.0 0.0 0.0
            specularColor 0.0 0.0 0.0
            ambientIntensity 0.0
            transparency 0.0
            shininess 0.5
        }
    }
    geometry IndexedFaceSet {
        ccw TRUE
        solid FALSE
        coord DEF co Coordinate {
            point [
                0.4843 1.3012 2.1856, 0.473 1.3012 2.1717, 0.4912 1.3012 2.2528, 0.2376 1.3012 2.29, 0.2612 1.3012 2.3302, 0.3629 1.3012 2.2771, 0.4152 1.3012 2.2545, 0.408 1.3012 2.2522, 0.5044 1.3012 2.3847, 0.4874 1.3012 2.3936, 0.4915 1.3012 2.4404, 0.4441 1.3012 2.4425, 0.4206 1.3012 2.3871, 0.409 1.3012 2.4111, 0.5077 1.3012 2.263, 0.5015 1.3012 2.2048, 0.4919 1.3012 2.2019, 0.4616 1.3012 2.444, 0.4018 1.3012 2.2483, 0.3967 1.3012 2.243, 0.3439 1.3012 2.2338, 0.3932 1.3012 2.2369, 0.3913 1.3012 2.2299, 0.3439 1.3012 2.2262, 0.3911 1.3012 2.2226, 0.3443 1.3012 2.2183, 0.4279 1.3012 2.2541, 0.4379 1.3012 2.3006, 0.4346 1.3012 2.2515, 0.4547 1.3012 2.2942, 0.4405 1.3012 2.2473, 0.4702 1.3012 2.2834, 0.4437 1.3012 2.244, 0.4828 1.3012 2.2691, 0.4475 1.3012 2.2377, 0.4497 1.3012 2.2305, 0.4501 1.3012 2.2231, 0.3923 1.3012 2.2978, 0.4106 1.3012 2.3023, 0.4198 1.3012 2.3029, 0.2126 1.3012 2.3651, 0.2065 1.3012 2.3651, 0.1754 1.3012 2.4061, 0.1921 1.3012 2.3633, 0.1717 1.3012 2.4048, 0.1788 1.3012 2.3582, 0.1491 1.3012 2.3936, 0.1285 1.3012 2.3762, 0.4285 1.3012 2.4607, 0.3919 1.3012 2.4315, 0.4107 1.3012 2.4759, 0.3716 1.3012 2.4463, 0.3899 1.3012 2.4886, 0.4687 1.3012 2.3981, 0.4608 1.3012 2.3985, 0.4528 1.3012 2.4436, 0.443 1.3012 2.3963, 0.426 1.3012 2.3901, 0.1283 1.3012 2.2346, 0.1637 1.3012 2.2647, 0.149 1.3012 2.2171, 0.1749 1.3012 2.2555, 0.1721 1.3012 2.2057, 0.1883 1.3012 2.2493, 0.1974 1.3012 2.2004, 0.202 1.3012 2.2467, 0.2422 1.3012 2.2004, 0.2361 1.3012 2.2467, 0.2465 1.3012 2.2011, 0.4206 1.3012 2.255, 0.3761 1.3012 2.2891, 0.1671 1.3012 2.35, 0.1583 1.3012 2.3402, 0.113 1.3012 2.3546, 0.1513 1.3012 2.3271, 0.1037 1.3012 2.3314, 0.1477 1.3012 2.3126, 0.1002 1.3012 2.3067, 0.1473 1.3012 2.3059, 0.1037 1.3012 2.2796, 0.1491 1.3012 2.2911, 0.1133 1.3012 2.2555, 0.1544 1.3012 2.2776, 0.1627 1.3012 2.2658, 0.2164 1.3012 2.4661, 0.2461 1.3012 2.4312, 0.1906 1.3012 2.436, 0.229 1.3012 2.4107, 0.2172 1.3012 2.3863, 0.5344 1.3012 2.341, 0.5843 1.3012 2.3284, 0.5367 1.3012 2.3226, 0.5845 1.3012 2.3211, 0.5358 1.3012 2.3109, 0.5809 1.3012 2.2914, 0.5303 1.3012 2.2923, 0.57 1.3012 2.2631, 0.5213 1.3012 2.2769, 0.5526 1.3012 2.2383, 0.5289 1.3012 2.2181, 0.4486 1.3012 2.216, 0.4456 1.3012 2.2096, 0.3548 1.3012 2.5015, 0.3468 1.3012 2.4564, 0.3196 1.3012 2.5055, 0.3189 1.3012 2.46, 0.2846 1.3012 2.5014, 0.2931 1.3012 2.4568, 0.2468 1.3012 2.4871, 0.2693 1.3012 2.4477, 0.248 1.3012 2.4329, 0.5196 1.3012 2.4294, 0.5437 1.3012 2.4125, 0.5174 1.3012 2.373, 0.5488 1.3012 2.4076, 0.5279 1.3012 2.3579, 0.5671 1.3012 2.3842, 0.5792 1.3012 2.3569, 0.3488 1.3012 2.1996, 0.3928 1.3012 2.2153, 0.3577 1.3012 2.1826, 0.3962 1.3012 2.2087, 0.3694 1.3012 2.1696, 0.4008 1.3012 2.2035, 0.3845 1.3012 2.1591, 0.4065 1.3012 2.1994, 0.4014 1.3012 2.1526, 0.4131 1.3012 2.1968, 0.4198 1.3012 2.1503, 0.4206 1.3012 2.1958, 0.4227 1.3012 2.1503, 0.4219 1.3012 2.1959, 0.4406 1.3012 2.1531, 0.4287 1.3012 2.197, 0.4582 1.3012 2.1605, 0.4355 1.3012 2.1999, 0.4413 1.3012 2.2044, 0.2399 1.3012 2.2474, 0.2582 1.3012 2.2084, 0.2564 1.3012 2.2066, 0.2377 1.3012 2.2469, 0.2515 1.3012 2.2031, 0.2642 1.3012 2.2239, 0.2635 1.3012 2.2183, 0.2615 1.3012 2.2131, 0.2466 1.3012 2.2467, 0.2518 1.3012 2.2446, 0.264 1.3012 2.2269, 0.2564 1.3012 2.2413, 0.2596 1.3012 2.2379, 0.2625 1.3012 2.2327, 0.2407 1.3012 2.2475, 0.1002 1.2972 2.3067, 0.1037 1.2972 2.3314, 0.1063 1.2972 2.3379, 0.113 1.2972 2.3546, 0.1285 1.2972 2.3762, 0.1491 1.2972 2.3936, 0.1717 1.2972 2.4048, 0.1754 1.2972 2.4061, 0.1906 1.2972 2.436, 0.2164 1.2972 2.4661, 0.2334 1.2972 2.4778, 0.2468 1.2972 2.4871, 0.2846 1.2972 2.5014, 0.3196 1.2972 2.5055, 0.3548 1.2972 2.5015, 0.3899 1.2972 2.4886, 0.4076 1.2972 2.4778, 0.4107 1.2972 2.4759, 0.4285 1.2972 2.4607, 0.4441 1.2972 2.4425, 0.4528 1.2972 2.4436, 0.4616 1.2972 2.444, 0.4915 1.2972 2.4404, 0.5196 1.2972 2.4294, 0.5437 1.2972 2.4125, 0.5488 1.2972 2.4076, 0.5792 1.2972 2.3569, 0.5671 1.2972 2.3842, 0.5826 1.2972 2.3379, 0.5843 1.2972 2.3284, 0.5845 1.2972 2.3211, 0.5809 1.2972 2.2914, 0.57 1.2972 2.2631, 0.5526 1.2972 2.2383, 0.5289 1.2972 2.2181, 0.5015 1.2972 2.2048, 0.4919 1.2972 2.2019, 0.491 1.2972 2.1999, 0.4843 1.2972 2.1856, 0.473 1.2972 2.1717, 0.4582 1.2972 2.1605, 0.4512 1.2972 2.1576, 0.4406 1.2972 2.1531, 0.4227 1.2972 2.1503, 0.4198 1.2972 2.1503, 0.3439 1.2972 2.2262, 0.4014 1.2972 2.1526, 0.3884 1.2972 2.1576, 0.3845 1.2972 2.1591, 0.3694 1.2972 2.1696, 0.3577 1.2972 2.1826, 0.3488 1.2972 2.1996, 0.3487 1.2972 2.1999, 0.3443 1.2972 2.2183, 0.3439 1.2972 2.2338, 0.2376 1.2972 2.29, 0.2612 1.2972 2.3302, 0.3629 1.2972 2.2771, 0.3761 1.2972 2.2891, 0.3923 1.2972 2.2978, 0.4106 1.2972 2.3023, 0.4198 1.2972 2.3029, 0.4379 1.2972 2.3006, 0.4547 1.2972 2.2942, 0.4702 1.2972 2.2834, 0.4828 1.2972 2.2691, 0.4912 1.2972 2.2528, 0.5077 1.2972 2.263, 0.5213 1.2972 2.2769, 0.5303 1.2972 2.2923, 0.5358 1.2972 2.3109, 0.5367 1.2972 2.3226, 0.5348 1.2972 2.3379, 0.5344 1.2972 2.341, 0.5279 1.2972 2.3579, 0.5174 1.2972 2.373, 0.5044 1.2972 2.3847, 0.4874 1.2972 2.3936, 0.4687 1.2972 2.3981, 0.4608 1.2972 2.3985, 0.443 1.2972 2.3963, 0.426 1.2972 2.3901, 0.4206 1.2972 2.3871, 0.409 1.2972 2.4111, 0.3919 1.2972 2.4315, 0.3716 1.2972 2.4463, 0.3468 1.2972 2.4564, 0.3189 1.2972 2.46, 0.2931 1.2972 2.4568, 0.2693 1.2972 2.4477, 0.248 1.2972 2.4329, 0.2461 1.2972 2.4312, 0.229 1.2972 2.4107, 0.2172 1.2972 2.3863, 0.2126 1.2972 2.3651, 0.2065 1.2972 2.3651, 0.1921 1.2972 2.3633, 0.1788 1.2972 2.3582, 0.1671 1.2972 2.35, 0.1583 1.2972 2.3402, 0.1571 1.2972 2.3379, 0.1513 1.2972 2.3271, 0.1477 1.2972 2.3126, 0.1473 1.2972 2.3059, 0.1491 1.2972 2.2911, 0.1544 1.2972 2.2776, 0.1627 1.2972 2.2658, 0.1637 1.2972 2.2647, 0.1749 1.2972 2.2555, 0.1883 1.2972 2.2493, 0.202 1.2972 2.2467, 0.2361 1.2972 2.2467, 0.2377 1.2972 2.2469, 0.2399 1.2972 2.2474, 0.2407 1.2972 2.2475, 0.2466 1.2972 2.2467, 0.2518 1.2972 2.2446, 0.2564 1.2972 2.2413, 0.2596 1.2972 2.2379, 0.2625 1.2972 2.2327, 0.264 1.2972 2.2269, 0.2642 1.2972 2.2239, 0.2635 1.2972 2.2183, 0.2615 1.2972 2.2131, 0.2582 1.2972 2.2084, 0.2564 1.2972 2.2066, 0.2515 1.2972 2.2031, 0.2465 1.2972 2.2011, 0.2422 1.2972 2.2004, 0.1974 1.2972 2.2004, 0.1721 1.2972 2.2057, 0.149 1.2972 2.2171, 0.1283 1.2972 2.2346, 0.1133 1.2972 2.2555, 0.1037 1.2972 2.2796, 0.4206 1.2972 2.255, 0.4152 1.2972 2.2545, 0.408 1.2972 2.2522, 0.4018 1.2972 2.2483, 0.3967 1.2972 2.243, 0.3932 1.2972 2.2369, 0.3913 1.2972 2.2299, 0.3911 1.2972 2.2226, 0.3928 1.2972 2.2153, 0.3962 1.2972 2.2087, 0.4008 1.2972 2.2035, 0.4065 1.2972 2.1994, 0.4131 1.2972 2.1968, 0.4206 1.2972 2.1958, 0.4219 1.2972 2.1959, 0.4287 1.2972 2.197, 0.4355 1.2972 2.1999, 0.4413 1.2972 2.2044, 0.4456 1.2972 2.2096, 0.4486 1.2972 2.216, 0.4501 1.2972 2.2231, 0.4497 1.2972 2.2305, 0.4475 1.2972 2.2377, 0.4437 1.2972 2.244, 0.4405 1.2972 2.2473, 0.4346 1.2972 2.2515, 0.4279 1.2972 2.2541
            ]
        }
        coordIndex [
            0,1,2,-1,3,4,5,-1,6,7,3,-1,8,9,10,-1,11,12,13,-1,14,15,2,-1,2,15,16,-1,2,16,0,-1,10,9,17,-1,7,18,3,-1,3,18,19,-1,3,19,20,-1,19,21,20,-1,20,21,22,-1,20,22,23,-1,23,22,24,-1,23,24,25,-1,26,27,28,-1,28,27,29,-1,28,29,30,-1,30,29,31,-1,30,31,32,-1,32,31,33,-1,32,33,34,-1,34,33,2,-1,34,2,35,-1,35,2,36,-1,37,38,26,-1,26,38,39,-1,26,39,27,-1,40,41,42,-1,42,41,43,-1,42,43,44,-1,44,43,45,-1,44,45,46,-1,46,45,47,-1,11,13,48,-1,48,13,49,-1,48,49,50,-1,50,49,51,-1,50,51,52,-1,9,53,17,-1,17,53,54,-1,17,54,55,-1,55,54,56,-1,55,56,11,-1,11,56,57,-1,11,57,12,-1,58,59,60,-1,60,59,61,-1,60,61,62,-1,62,61,63,-1,62,63,64,-1,64,63,65,-1,64,65,66,-1,66,65,67,-1,66,67,68,-1,6,3,69,-1,69,3,5,-1,69,5,26,-1,26,5,70,-1,26,70,37,-1,45,71,47,-1,47,71,72,-1,47,72,73,-1,73,72,74,-1,73,74,75,-1,75,74,76,-1,75,76,77,-1,77,76,78,-1,77,78,79,-1,79,78,80,-1,79,80,81,-1,81,80,82,-1,81,82,58,-1,58,82,83,-1,58,83,59,-1,84,85,86,-1,86,85,87,-1,86,87,42,-1,42,87,88,-1,42,88,40,-1,89,90,91,-1,91,90,92,-1,91,92,93,-1,93,92,94,-1,93,94,95,-1,95,94,96,-1,95,96,97,-1,97,96,98,-1,97,98,14,-1,14,98,99,-1,14,99,15,-1,36,2,100,-1,100,2,1,-1,100,1,101,-1,52,51,102,-1,102,51,103,-1,102,103,104,-1,104,103,105,-1,104,105,106,-1,106,105,107,-1,106,107,108,-1,108,107,109,-1,108,109,84,-1,84,109,110,-1,84,110,85,-1,10,111,8,-1,8,111,112,-1,8,112,113,-1,113,112,114,-1,113,114,115,-1,115,114,116,-1,115,116,89,-1,89,116,117,-1,89,117,90,-1,25,24,118,-1,118,24,119,-1,118,119,120,-1,120,119,121,-1,120,121,122,-1,122,121,123,-1,122,123,124,-1,124,123,125,-1,124,125,126,-1,126,125,127,-1,126,127,128,-1,128,127,129,-1,128,129,130,-1,130,129,131,-1,130,131,132,-1,132,131,133,-1,132,133,134,-1,134,133,135,-1,134,135,1,-1,1,135,136,-1,1,136,101,-1,137,138,139,-1,67,140,68,-1,68,140,137,-1,68,137,141,-1,141,137,139,-1,142,143,137,-1,137,143,144,-1,137,144,138,-1,145,146,147,-1,146,148,147,-1,147,148,149,-1,147,149,150,-1,142,137,147,-1,147,137,151,-1,147,151,145,-1,77,152,153,-1,77,153,75,-1,75,153,154,-1,75,154,73,-1,154,155,73,-1,73,155,156,-1,73,156,47,-1,47,156,157,-1,47,157,46,-1,46,157,158,-1,46,158,44,-1,44,158,159,-1,44,159,42,-1,42,159,160,-1,42,160,86,-1,86,160,161,-1,86,161,84,-1,108,84,162,-1,162,84,161,-1,162,163,108,-1,108,163,164,-1,108,164,106,-1,106,164,165,-1,106,165,104,-1,104,165,166,-1,104,166,102,-1,102,166,167,-1,102,167,52,-1,52,167,50,-1,50,167,168,-1,50,168,169,-1,50,169,170,-1,50,170,48,-1,48,170,171,-1,48,171,11,-1,11,171,172,-1,11,172,55,-1,55,172,173,-1,55,173,17,-1,17,173,174,-1,17,174,10,-1,10,174,175,-1,10,175,111,-1,111,175,176,-1,111,176,112,-1,112,176,177,-1,112,177,114,-1,178,116,179,-1,179,116,114,-1,179,114,177,-1,180,90,178,-1,178,90,117,-1,178,117,116,-1,180,181,90,-1,90,181,182,-1,90,182,92,-1,92,182,183,-1,92,183,94,-1,94,183,184,-1,94,184,96,-1,96,184,185,-1,96,185,98,-1,98,185,186,-1,98,186,99,-1,99,186,187,-1,99,187,15,-1,15,187,188,-1,15,188,16,-1,16,188,189,-1,16,189,0,-1,189,190,0,-1,0,190,191,-1,0,191,1,-1,1,191,192,-1,1,192,134,-1,134,192,193,-1,134,193,132,-1,193,194,132,-1,132,194,195,-1,132,195,130,-1,130,195,196,-1,130,196,128,-1,197,23,25,-1,128,196,198,-1,199,124,198,-1,198,124,126,-1,198,126,128,-1,199,200,124,-1,124,200,201,-1,124,201,122,-1,122,201,202,-1,122,202,120,-1,120,202,203,-1,120,203,118,-1,118,203,204,-1,118,204,25,-1,25,204,205,-1,25,205,197,-1,20,23,206,-1,206,23,197,-1,3,20,207,-1,207,20,206,-1,4,3,208,-1,208,3,207,-1,5,4,209,-1,209,4,208,-1,5,209,210,-1,5,210,70,-1,70,210,211,-1,70,211,37,-1,37,211,212,-1,37,212,38,-1,38,212,213,-1,38,213,39,-1,39,213,214,-1,39,214,27,-1,27,214,215,-1,27,215,29,-1,29,215,216,-1,29,216,31,-1,31,216,217,-1,31,217,33,-1,33,217,218,-1,33,218,2,-1,2,218,219,-1,2,219,14,-1,14,219,220,-1,14,220,97,-1,97,220,221,-1,97,221,95,-1,95,221,222,-1,95,222,93,-1,93,222,223,-1,93,223,91,-1,91,223,89,-1,89,223,224,-1,224,225,89,-1,89,225,226,-1,89,226,115,-1,115,226,227,-1,115,227,113,-1,113,227,228,-1,113,228,8,-1,8,228,229,-1,8,229,9,-1,9,229,230,-1,9,230,53,-1,53,230,231,-1,53,231,54,-1,54,231,232,-1,54,232,56,-1,56,232,233,-1,56,233,57,-1,57,233,234,-1,57,234,12,-1,12,234,235,-1,12,235,13,-1,13,235,236,-1,13,236,49,-1,49,236,237,-1,49,237,51,-1,51,237,238,-1,51,238,103,-1,103,238,239,-1,103,239,105,-1,105,239,240,-1,105,240,107,-1,107,240,241,-1,107,241,109,-1,109,241,242,-1,109,242,110,-1,110,242,243,-1,110,243,85,-1,85,243,244,-1,85,244,87,-1,87,244,245,-1,87,245,88,-1,88,245,246,-1,88,246,40,-1,41,40,247,-1,247,40,246,-1,41,247,248,-1,41,248,43,-1,43,248,249,-1,43,249,45,-1,45,249,250,-1,45,250,71,-1,71,250,251,-1,71,251,72,-1,72,251,252,-1,72,252,74,-1,252,253,74,-1,74,253,254,-1,74,254,76,-1,76,254,255,-1,76,255,78,-1,78,255,256,-1,78,256,80,-1,80,256,257,-1,80,257,82,-1,82,257,258,-1,82,258,83,-1,83,258,259,-1,83,259,59,-1,59,259,260,-1,59,260,61,-1,61,260,261,-1,61,261,63,-1,63,261,262,-1,63,262,65,-1,67,65,263,-1,263,65,262,-1,67,263,264,-1,67,264,140,-1,140,264,265,-1,140,265,137,-1,137,265,266,-1,137,266,151,-1,151,266,267,-1,151,267,145,-1,145,267,268,-1,145,268,146,-1,146,268,269,-1,146,269,148,-1,148,269,270,-1,148,270,149,-1,149,270,271,-1,149,271,150,-1,150,271,272,-1,150,272,147,-1,147,272,273,-1,147,273,142,-1,142,273,274,-1,142,274,143,-1,143,274,275,-1,143,275,144,-1,144,275,276,-1,144,276,138,-1,138,276,277,-1,138,277,139,-1,139,277,278,-1,139,278,141,-1,141,278,279,-1,141,279,68,-1,68,279,280,-1,68,280,66,-1,64,66,281,-1,281,66,280,-1,64,281,282,-1,64,282,62,-1,62,282,283,-1,62,283,60,-1,60,283,284,-1,60,284,58,-1,58,284,285,-1,58,285,81,-1,81,285,286,-1,81,286,79,-1,79,286,152,-1,79,152,77,-1,69,287,288,-1,69,288,6,-1,6,288,289,-1,6,289,7,-1,7,289,290,-1,7,290,18,-1,18,290,291,-1,18,291,19,-1,19,291,292,-1,19,292,21,-1,21,292,293,-1,21,293,22,-1,22,293,294,-1,22,294,24,-1,24,294,295,-1,24,295,119,-1,119,295,296,-1,119,296,121,-1,121,296,297,-1,121,297,123,-1,123,297,298,-1,123,298,125,-1,125,298,299,-1,125,299,127,-1,127,299,300,-1,127,300,129,-1,129,300,301,-1,129,301,131,-1,131,301,302,-1,131,302,133,-1,133,302,303,-1,133,303,135,-1,135,303,304,-1,135,304,136,-1,136,304,305,-1,136,305,101,-1,101,305,306,-1,101,306,100,-1,100,306,307,-1,100,307,36,-1,36,307,308,-1,36,308,35,-1,35,308,309,-1,35,309,34,-1,34,309,310,-1,34,310,32,-1,32,310,311,-1,32,311,30,-1,30,311,312,-1,30,312,28,-1,28,312,313,-1,28,313,26,-1,26,313,287,-1,26,287,69,-1,
        ]
    }
}
Shape{
    appearance Appearance {
        material  Material {
            diffuseColor 1.0 1.0 1.0
            specularColor 0.5019607843137255 0.5019607843137255 0.5019607843137255
            ambientIntensity 1.0
            transparency 0.0
            shininess 0.5
        }
    }
    geometry IndexedFaceSet {
        ccw TRUE
        solid FALSE
        coord DEF co Coordinate {
            point [
                0.4219 1.2972 2.1959, 0.4405 1.2972 2.2473, 0.4437 1.2972 2.244, 0.4131 1.2972 2.1968, 0.4065 1.2972 2.1994, 0.4152 1.2972 2.2545, 0.4206 1.2972 2.255, 0.4279 1.2972 2.2541, 0.4346 1.2972 2.2515, 0.4486 1.2972 2.216, 0.4456 1.2972 2.2096, 0.4413 1.2972 2.2044, 0.4206 1.2972 2.1958, 0.3932 1.2972 2.2369, 0.3967 1.2972 2.243, 0.3962 1.2972 2.2087, 0.4018 1.2972 2.2483, 0.4475 1.2972 2.2377, 0.4497 1.2972 2.2305, 0.4501 1.2972 2.2231, 0.4355 1.2972 2.1999, 0.4287 1.2972 2.197, 0.4008 1.2972 2.2035, 0.408 1.2972 2.2522, 0.3928 1.2972 2.2153, 0.3911 1.2972 2.2226, 0.3913 1.2972 2.2299, 2.2638 1.1004 2.7559, 2.1457 0.9823 2.6378, 2.2638 -0.3169 2.7559, 2.1457 -0.3169 2.6378, -2.2638 1.1004 2.7559, -2.1457 0.9823 2.6378, -2.2638 -0.3169 2.7559, -2.1457 -0.3169 2.6378
            ]
        }
        coordIndex [
            0,1,2,-1,3,4,5,-1,6,7,0,-1,0,7,8,-1,0,8,1,-1,9,10,2,-1,2,10,11,-1,6,0,5,-1,5,0,12,-1,5,12,3,-1,13,14,15,-1,15,14,16,-1,17,18,2,-1,2,18,19,-1,2,19,9,-1,11,20,2,-1,2,20,21,-1,2,21,0,-1,4,22,5,-1,5,22,15,-1,5,15,23,-1,23,15,16,-1,24,25,15,-1,15,25,26,-1,15,26,13,-1,27,28,29,-1,29,28,30,-1,31,32,27,-1,27,32,28,-1,33,34,31,-1,31,34,32,-1,
        ]
    }
}